<svg width="819.39" height="591.24" viewBox="0 0 819.39 591.24" xmlns="http://www.w3.org/2000/svg" xmlns:xlink="http://www.w3.org/1999/xlink" xml:space="preserve" overflow="visible"><defs></defs><rect x="35.64" y="29.44" width="750" height="500" fill="#FAF4C6"/><g><defs><rect x="35.64" y="29.44" width="750" height="500" id="SVGID_2_"/></defs><clipPath id="SVGID_3_"><use width="100%" height="100%" xlink:href="#SVGID_2_" overflow="visible"></use></clipPath><path d="M503.16 16.27C502.08 16.27 501 16.27 499.93 16.29 492.09 16.37 484.51 16.82 477.4 17.62 476.98 17.67 476.67 18.03 476.71 18.44 476.74 18.76 476.98 19.04 477.3 19.12 477.57 21.25 478.05 23.35 478.71 25.34 479.39 27.37 480.3 29.4 481.39 31.37 483.42 35.04 486.21 38.64 489.69 42.06 492.84 45.15 496.57 48.08 500.77 50.77 504.57 53.2 508.76 55.38 513.22 57.27 517.35 59.01 521.5 60.37 525.56 61.31 530.37 62.42 535.21 62.99 539.95 62.99 540.8 62.99 541.65 62.97 542.51 62.93 547.72 62.7 553.09 61.73 558.46 60.04 563.2 58.55 568.19 56.42 573.74 53.54 574.28 53.26 574.81 52.98 575.34 52.7 577.93 59.16 581.12 65.55 584.82 71.69 589.52 79.5 595.13 87.03 601.5 94.07 607.7 100.94 614.68 107.34 622.27 113.1 629.78 118.8 637.86 123.77 646.3 127.87 654.8 132 663.63 135.17 672.54 137.32 676.93 138.38 681.52 139.2 686.19 139.76 690.41 140.27 694.23 140.51 697.86 140.51 698.69 140.51 699.53 140.5 700.36 140.47 705.02 140.32 709.87 139.68 714.8 138.58 719.35 137.56 724.05 136.04 728.76 134.08 737.81 130.31 746.16 125.01 753.58 118.33 754.16 117.81 754.73 117.28 755.3 116.74 755.4 116.97 755.52 117.19 755.64 117.42 757.35 120.62 759.65 123.58 762.47 126.22 765.17 128.75 768.26 130.87 771.66 132.54 775.05 134.21 778.6 135.34 782.19 135.91 783.97 136.19 785.76 136.34 787.51 136.34 789.41 136.34 791.3 136.17 793.14 135.84 796.72 135.19 800.24 133.82 803.3 131.85 804.63 130.99 805.93 129.99 807.15 128.87 808.26 127.85 809.32 126.7 810.39 125.35 810.59 125.33 810.79 125.22 810.92 125.04 811.04 124.88 811.09 124.7 811.06 124.53 810.6 121.57 810.27 118.43 810.07 114.91 809.88 111.56 809.83 108.15 809.78 104.85L809.78 104.6C809.73 100.55 809.89 96.53 810.08 92.43 810.19 90.08 810.32 87.68 810.44 85.29 810.71 80.17 810.98 74.87 811.14 69.65 811.43 60.08 811.25 52.82 810.56 46.09 810.19 42.51 809.62 39.06 808.85 35.84 808.06 32.53 807.04 29.64 805.72 27.01 805.25 26.07 804.71 25.08 804.02 24.2 803.45 23.48 802.74 22.79 801.85 22.1 800.3 20.91 798.41 19.98 795.89 19.15 793.65 18.41 791.17 17.87 788.09 17.45 785.47 17.09 782.67 16.88 779.02 16.76 777.64 16.72 776.21 16.69 774.74 16.69 769.16 16.69 763.63 17.01 758.95 17.33 755.87 17.54 752.79 17.79 749.7 18.04 746.76 18.28 743.83 18.52 740.88 18.72 738.39 18.89 736.3 19.01 734.18 19.02L733.82 19.02C733.42 19.02 733.03 19.01 732.63 19.01L732 19.02C730.67 19 729.34 18.99 728.01 18.97 725.05 18.94 722.14 18.92 719.22 18.91 716.71 18.9 714.19 18.89 711.68 18.89 693.96 18.89 675.95 19.16 658.53 19.43L657.94 19.44 657.54 19.45C640.09 19.71 622.06 19.98 604.31 19.98 597.37 19.98 590.96 19.94 584.71 19.86 581.61 19.82 578.51 19.77 575.41 19.69 571.9 19.6 568.42 19.46 565.78 19.34 558.7 19 551.41 18.53 544.36 18.07 537.05 17.59 529.5 17.1 522.06 16.76 515.07 16.43 508.89 16.27 503.16 16.27Z" fill="#FFEB6D" clip-path="url(#SVGID_3_)" opacity="0.5"/><path d="M86.36 0C83.67 0 80.98 0.02 78.29 0.06 67.2 0.22 56.95 0.74 46.96 1.67L44.35 1.92C43.29 2.02 42.23 2.13 41.17 2.22 39.52 2.37 37.74 2.54 35.95 2.76 34.39 2.95 32.96 3.17 31.58 3.45 30.2 3.72 28.82 4.1 27.47 4.58 26.29 4.99 25.12 5.54 24.01 6.22 22.91 6.88 21.84 7.73 20.86 8.73 18.99 10.63 17.5 13.17 16.3 16.48 15.97 17.41 15.7 18.36 15.45 19.26 15.11 20.5 14.82 21.74 14.6 22.68 14.11 24.84 13.68 27.16 13.3 29.76 12.66 34.1 12.31 38.86 12.22 44.3 12.08 53.19 12.81 62.15 13.52 69.86 13.71 71.96 13.91 74.05 14.11 76.15 14.74 82.79 15.4 89.65 15.76 96.42L15.77 96.22C16.1 103.18 16.07 109.26 15.67 114.81 15.64 115.23 15.95 115.6 16.36 115.63 16.36 115.63 16.37 115.63 16.37 115.63 16.6 115.63 16.78 115.56 16.92 115.44 21.54 121.08 26.82 126.16 32.58 130.54 38.2 134.81 44.44 138.46 51.14 141.4 63.14 146.67 76.71 149.45 90.39 149.45 91.04 149.45 91.7 149.44 92.35 149.43 106.37 149.16 120.55 145.95 133.37 140.14 139.78 137.24 145.95 133.61 151.69 129.35 157.4 125.11 162.69 120.17 167.42 114.66 172.94 108.21 177.53 101.07 181.05 93.43 184.31 86.35 186.42 79.07 187.3 71.79 189.21 72.79 191.35 73.48 193.62 73.85 194.84 74.05 196.11 74.15 197.41 74.15 199.3 74.15 201.26 73.94 203.24 73.52 206.46 72.84 209.59 71.63 212.56 69.91 217.93 66.81 222.14 62.32 224.42 57.29 225.14 57.98 225.93 58.66 226.74 59.31 230.15 62.02 234.32 64.32 239.15 66.13 243.43 67.74 248.26 68.95 253.48 69.7 257.44 70.28 261.57 70.57 265.76 70.57 266.5 70.57 267.24 70.56 267.98 70.54 273.04 70.42 277.56 69.92 281.8 69.01 286.76 67.94 291.78 66.22 296.7 63.87 301.54 61.57 306.18 58.69 310.5 55.31 314.81 51.94 318.68 48.09 322.01 43.87 325.17 39.85 327.75 35.5 329.67 30.96 331.64 26.28 332.85 21.39 333.26 16.42 333.29 16.01 332.97 15.63 332.56 15.6 332.54 15.6 332.52 15.6 332.5 15.6 332.43 15.6 332.38 15.61 332.33 15.62 332.35 15.43 332.28 15.22 332.14 15.06 332.01 14.91 331.83 14.83 331.65 14.82 326.65 14.64 321.54 14.27 316.02 13.69 310.49 13.11 305.11 12.36 300.57 11.71 298.47 11.4 296.37 11.09 294.27 10.77 291.14 10.3 288.01 9.82 284.87 9.39 279.99 8.71 274.82 8.08 269.06 7.46 246.56 5.04 224.39 4.08 205.67 3.46 196.63 3.16 187.43 2.92 178.54 2.69L173.86 2.57C168.55 2.43 163.24 2.28 157.93 2.12 152.5 1.96 147.09 1.75 142.05 1.55L134.55 1.25C118.75 0.65 102.42 0 86.36 0Z" fill="#FFEB6D" clip-path="url(#SVGID_3_)" opacity="0.5"/><path d="M22.17 278.12C16.99 278.12 11.75 278.56 6.58 279.41 6.62 279.25 6.63 279.08 6.65 278.91 6.67 278.72 6.55 278.49 6.42 278.37 6.28 278.23 6.08 278.15 5.89 278.15 5.69 278.15 5.5 278.23 5.35 278.37 5.2 278.52 5.15 278.68 5.13 278.91L5.08 279.3 5.03 279.7C4.9 279.74 4.8 279.81 4.72 279.91 4.59 280.06 4.53 280.27 4.55 280.46 4.57 280.67 4.7 280.88 4.88 281.02 4.26 286.18 3.7 291.59 3.19 297.08 2.63 303.13 2.13 309.64 1.67 316.97 0.93 328.65 0.45 341.3 0.18 355.66-0.31 382.34 0.26 409.02 0.94 433.88 1.17 442.21 1.42 450.54 1.67 458.87 2.19 476.09 2.73 493.89 3.04 511.4 3.14 517.24 3.22 523.38 3.26 529.66L3.27 531.8C3.28 533.67 3.28 535.61 3.34 537.51 3.41 539.71 3.59 541.98 3.91 544.46 4.08 545.8 4.33 547.24 4.7 548.98 5 550.36 5.43 551.84 6.02 553.51 6.38 554.54 6.87 555.63 7.55 556.96 8.17 558.18 8.94 559.37 9.83 560.48 10.23 560.98 10.65 561.47 11.08 561.95 11.49 562.4 11.95 562.82 12.39 563.23 13.31 564.08 14.26 564.75 15.16 565.37 16.33 566.17 17.59 566.8 18.67 567.32 20.13 568.02 21.67 568.56 22.85 568.95 24.35 569.45 25.9 569.84 27.35 570.18 29.04 570.57 30.75 570.87 32.36 571.13 36.3 571.78 40.35 572.16 44.13 572.48 49.56 572.94 54.91 573.24 59.89 573.5 66.19 573.83 72.83 574.05 80.78 574.2 85.28 574.29 90.03 574.33 94.9 574.33 102.71 574.33 111.24 574.22 120.96 573.99 134.01 573.68 146.88 573.18 161.14 572.61L166.04 572.41C177.6 571.94 189.56 571.46 201.32 571.09 214.59 570.68 226.57 570.47 237.94 570.47 239.12 570.47 240.3 570.47 241.48 570.48 255.22 570.53 268.72 570.98 281.62 571.82 292.17 572.5 302.97 573.57 313.71 574.99 326.98 576.8 340.23 579.19 353.06 581.49 358.78 582.52 365.43 583.71 372.04 584.83 379.11 586.03 386.04 587.09 392.65 587.99 398.39 588.77 404.34 589.44 410.34 589.97 416.37 590.51 422.8 590.84 431.18 591.06 435.09 591.16 439.08 591.21 443.37 591.21 453.28 591.21 463.17 590.94 471.54 590.67 476.74 590.5 481.95 590.31 487.15 590.12 495.26 589.82 503.65 589.51 511.9 589.3 515.88 589.2 519.93 589.14 523.85 589.09 526.34 589.06 528.83 589.02 531.32 588.98 537.68 588.87 544.38 588.68 552.43 588.38 580.12 587.37 607.7 585.37 633.39 583.37 642.19 582.69 650.98 581.98 659.77 581.27 664.46 580.89 669.14 580.52 673.83 580.14 680.3 579.63 686.78 579.12 693.25 578.63 699.83 578.13 706.51 577.55 712.97 576.98L713.95 576.89C721.36 576.24 727.35 575.78 732.81 575.46 738.35 575.13 743.9 574.96 749.31 574.96 750.66 574.96 752.02 574.97 753.37 574.99 755.79 575.03 758.28 575.13 760.99 575.3 762.39 575.39 763.79 575.49 765.19 575.59L767.29 575.74C769.49 575.9 771.81 576.04 774.2 576.15 775.83 576.22 777.5 576.26 779.18 576.26 780.3 576.26 781.42 576.24 782.54 576.21 784.68 576.15 786.7 575.99 788.56 575.74 789.67 575.59 790.76 575.41 791.9 575.2 792.96 575 794 574.72 795.07 574.41 796.08 574.13 797.04 573.75 798.01 573.35 798.63 573.1 799.22 572.8 799.8 572.5L800.01 572.39C800.83 571.97 801.58 571.44 802.34 570.9 803.03 570.41 803.65 569.82 804.29 569.22 805.32 568.23 806.17 567.07 806.94 565.96 807.93 564.53 808.69 562.91 809.3 561.51 809.94 560.05 810.41 558.53 810.84 557.11 811.49 554.9 811.91 552.57 812.23 550.59 812.88 546.6 813.11 542.61 813.25 539.23 813.43 534.71 813.36 530.23 813.27 525.67 813.24 524.16 813.2 522.66 813.16 521.15 813.1 518.76 813.04 516.38 813 514 812.98 512.32 812.98 510.59 813.02 508.84 813.04 508.07 813.07 507.29 813.11 506.51 813.15 505.73 813.2 504.96 813.26 504.19L813.27 504.01 813.46 501.07C815.15 474.42 815.72 446.43 815.22 415.51 814.79 388.62 813.47 360.89 811.2 330.71 811.22 330.64 811.22 330.56 811.21 330.49 811.21 330.43 811.19 330.37 811.17 330.3L811.16 330.15 811.15 330C811.14 329.77 811.07 329.6 810.93 329.46 810.79 329.32 810.59 329.24 810.39 329.24 810.25 329.24 810.1 329.29 809.97 329.37 807.26 327.64 804.43 326.07 801.58 324.69 798.52 323.21 795.23 321.87 791.82 320.73 785.37 318.58 778.53 317.18 771.49 316.58 768.82 316.35 766.1 316.24 763.39 316.24 752.46 316.24 741.14 318.06 729.73 321.65 723.02 323.76 716.25 326.53 709.59 329.9 703.14 333.17 696.83 337 690.83 341.3 684.98 345.49 679.35 350.23 674.1 355.37 668.93 360.43 664.19 365.89 660.01 371.62 651.39 383.41 645.48 395.87 642.44 408.65 641.83 411.19 641.37 413.74 641.07 416.24 640.74 418.98 640.58 421.86 640.59 425.05 640.59 426.26 640.63 427.49 640.68 428.7 638.78 427.4 636.65 426.31 634.36 425.46 631.12 424.26 627.52 423.55 623.68 423.35 622.95 423.31 622.2 423.29 621.46 423.29 618.53 423.29 615.51 423.6 612.47 424.2 608.81 424.93 605.21 426.12 601.76 427.72 598.73 429.14 595.93 430.87 593.45 432.87 592.58 431.45 591.65 430.02 590.69 428.64 587.96 424.7 584.89 420.88 581.58 417.3 575.26 410.46 567.78 404.31 559.36 399.01 551.48 394.05 542.6 389.81 532.98 386.42 523.96 383.24 514.13 380.82 503.75 379.22 494.55 377.8 484.86 377.09 474.95 377.09 474.28 377.09 473.62 377.09 472.96 377.1 462.74 377.2 452.32 378.1 441.94 379.76 431.82 381.38 421.74 383.79 412.01 386.91 402.4 389.99 393.19 393.78 384.63 398.18 376.42 402.39 368.76 407.24 361.86 412.6 359.48 414.45 357.23 416.35 355.18 418.27 352.73 420.55 350.3 423.11 347.76 426.08 342.8 431.86 338.6 438.01 335.14 443.26 330.63 441.77 325.81 440.65 320.84 439.93 316.7 439.33 312.35 439.03 307.89 439.03 307.14 439.03 306.38 439.04 305.63 439.06 295.78 439.28 285.69 440.99 275.65 444.15 272.76 445.06 269.83 446.12 266.93 447.31 263.85 448.58 261.14 449.87 258.64 451.26 257.87 451.69 257.14 452.23 256.41 452.8 255.58 453.43 254.78 454.12 254 454.78L253.89 454.87 253.23 455.43C251.76 456.69 250.23 457.99 248.63 459.12 247.85 459.66 246.91 460.26 245.87 460.67 245.61 460.76 245.34 460.83 245.07 460.89L244.85 460.93C244.4 461.02 243.96 461.1 243.51 461.21 243.32 461.25 243.14 461.3 242.95 461.35L242.73 461.41C242.61 461.44 242.56 461.46 242.5 461.47L242.41 461.37 242.31 461.26C242.01 460.94 241.67 460.66 241.34 460.39 240.8 459.95 240.21 459.56 239.7 459.23 239.21 458.91 238.72 458.55 238.2 458.12 236.64 456.77 235.27 455.17 234.03 453.64 233.49 452.98 232.96 452.31 232.43 451.63 231.61 450.59 230.8 449.56 229.95 448.55 229.25 447.72 228.59 446.99 227.91 446.32 227.26 445.66 226.53 445.01 225.54 444.23 223.67 442.76 221.71 441.35 219.72 440.07 215.71 437.47 211.48 435.34 207.14 433.77 202.86 432.22 198.36 431.23 193.75 430.84 192.36 430.72 190.97 430.66 189.63 430.66 186.28 430.66 182.98 431.01 179.81 431.71 179.63 431.75 179.44 431.79 179.26 431.83 179.35 430.26 179.34 428.59 179.25 426.89 178.99 422.06 178.05 417.04 176.37 411.56 174.9 406.76 172.87 401.88 170.35 397.06 169.21 394.88 167.95 392.73 166.62 390.65 165.36 388.7 163.98 386.77 162.39 384.75 155.79 376.4 148.18 370.03 139.77 365.81 135.55 363.7 131.07 362.14 126.46 361.19 123.03 360.48 119.46 360.13 115.84 360.13 114.61 360.13 113.35 360.17 112.09 360.25 111.82 360.27 111.54 360.29 111.27 360.31 111.3 358.32 111.2 356.25 110.98 354.15 110.43 348.85 109.1 343.31 107.03 337.7 105.12 332.53 102.54 327.29 99.37 322.11 96.42 317.3 92.97 312.65 89.11 308.27 85.4 304.06 81.43 300.27 77.32 297 72.61 293.26 67.43 289.98 61.92 287.25 51.37 282.03 39.37 278.92 27.22 278.26 25.5 278.16 23.81 278.12 22.17 278.12Z" fill="#FFEB6D" clip-path="url(#SVGID_3_)" opacity="0.5"/><path d="M790.02 397.56C786.89 397.56 783.72 397.72 780.59 398.02 769.03 399.14 757.38 402.3 745.97 407.4 734.82 412.38 724.46 418.97 715.16 426.99 705.75 435.1 697.88 444.31 691.76 454.37 688.66 459.47 686.04 464.8 683.97 470.21 682.94 472.91 682.02 475.72 681.24 478.55 680.86 479.93 680.51 481.36 680.19 482.8 679.77 484.69 679.47 486.39 679.26 488 679.07 489.44 678.94 490.98 678.85 492.7 670.99 484.09 660.32 476.77 647.16 470.92 639.21 467.38 630.45 464.47 621.12 462.27 612.58 460.25 603.87 458.93 595.21 458.33 591.8 458.09 588.31 457.98 584.55 457.98 583.6 457.98 582.64 457.99 581.69 458 576.52 458.08 571.35 458.42 566.31 459 555.93 460.2 546.13 462.52 537.19 465.9 527.71 469.48 519 474.4 511.29 480.53 507.35 483.65 503.56 487.22 500.02 491.14 498.62 492.69 497.17 494.43 495.58 496.48 494.68 496.09 493.76 495.73 492.83 495.39 488.03 493.62 482.99 492.39 477.86 491.72 474.8 491.32 471.66 491.12 468.51 491.12 461.58 491.12 454.5 492.08 447.46 493.98 437.62 496.63 428.16 501.05 419.34 507.11 410.6 513.11 403.02 520.4 396.83 528.8 394.06 532.56 391.59 536.53 389.49 540.61 387.59 544.29 385.96 548.18 384.64 552.16 384.3 552.22 383.96 552.29 383.62 552.37 383.43 552.41 383.26 552.6 383.18 552.76 383.09 552.94 383.08 553.15 383.14 553.34 383.21 553.53 383.35 553.69 383.53 553.78 383.63 553.83 383.72 553.85 383.83 553.85 383.91 553.85 383.99 553.84 384.1 553.81L384.21 553.78C384.23 553.88 384.28 553.98 384.33 554.05 384.44 554.21 384.62 554.33 384.81 554.36 384.86 554.37 384.91 554.37 384.96 554.37 385.12 554.37 385.27 554.32 385.39 554.24 385.56 554.13 385.64 553.97 385.71 553.77L385.77 553.58 385.81 553.45C390.75 552.52 396.12 551.91 402.73 551.56 406.31 551.37 410.11 551.28 414.32 551.28 416.58 551.28 418.97 551.31 421.64 551.36 427.42 551.47 433.3 551.75 438.99 552.02L440.72 552.1C447.87 552.44 455.02 552.77 462.17 553.11L462.47 553.12C489.28 554.39 519.67 555.83 549.48 557.11 581.44 558.48 609.91 559.53 636.52 560.31 650.07 560.7 663.83 561.33 677.14 561.93 691.79 562.59 706.95 563.28 721.86 563.66 729.79 563.86 737.07 563.96 744.11 563.96 751.12 563.96 757.96 563.86 764.42 563.65 766.97 563.57 769.51 563.47 772.06 563.36L772.89 563.33C775.9 563.2 778.2 563.07 780.35 562.92 785.6 562.53 789.87 561.85 793.79 560.78 795.79 560.23 797.78 559.49 799.73 558.55 801.63 557.64 803.45 556.48 805.12 555.11 806.57 553.92 807.95 552.44 809.22 550.7 810.52 548.92 811.6 546.83 812.55 544.31 812.98 543.16 813.34 542 813.75 540.61 814.2 539.07 814.55 537.54 814.83 536.25 815.43 533.48 815.9 530.46 816.33 526.47 816.65 523.57 816.85 520.61 817.04 517.83 817.14 516.25 817.24 514.67 817.33 513.09 817.43 511.37 817.53 509.64 817.65 507.92L817.62 508.02C817.78 506.01 817.93 504.07 818.11 502.17L818.27 500.56 818.44 498.87C818.55 497.73 818.64 496.59 818.72 495.44 819.03 491.45 819.23 487.21 819.34 482.46 819.52 474.58 819.35 465.99 818.8 455.42 818.38 447.51 817.78 439.48 817.2 431.71L816.96 428.46C816.39 420.74 815.75 411.76 815.35 402.78 815.47 402.78 815.62 402.73 815.72 402.65 815.88 402.54 816 402.37 816.04 402.18 816.08 401.98 816.04 401.77 815.92 401.6 815.79 401.41 815.61 401.34 815.44 401.29L815.27 401.25 815.28 401.25C815.22 400.9 814.89 400.62 814.53 400.62 814.29 400.64 814.11 400.72 813.98 400.86 808.91 399.4 803.61 398.42 798.23 397.93 795.55 397.68 792.8 397.56 790.02 397.56Z" fill="#FFEB6D" clip-path="url(#SVGID_3_)"/></g><path d="M102.42 67.66C105.55 60.59 111.66 55.2 118.96 52.9 111.7 55.16 105.57 60.47 102.42 67.66Z" fill="#F2664D"/><path d="M133.43 104.24C141.33 102.22 148.06 96.64 151.37 88.91 148.08 96.49 141.37 102.18 133.43 104.24Z" fill="#F2664D"/><g><path d="M473.35 420.21C473.11 420.21 472.87 420.24 472.63 420.31 472.4 420.37 472.16 420.49 471.93 420.65 471.69 420.83 471.5 421.03 471.28 421.32 471.14 421.51 471.01 421.73 470.88 422.04 470.74 422.36 470.62 422.69 470.53 423.05 470.32 423.83 470.23 424.63 470.17 425.33 470.1 426.22 470.09 427.13 470.12 428.21 470.15 429.17 470.21 430.12 470.3 431.13 470.33 431.45 470.36 431.76 470.39 432.07 469.92 432.26 469.43 432.48 468.95 432.7 468.02 433.12 466.93 433.63 465.87 434.21 464.77 434.81 463.94 435.39 463.25 436.04 462.93 436.34 462.64 436.68 462.39 437.06 462.18 437.36 462 437.74 461.85 438.18 461.64 438.8 461.65 439.47 461.87 440.01 461.98 440.28 462.13 440.52 462.34 440.78 462.55 441.04 462.84 441.25 463.06 441.41 463.67 441.85 464.37 442.1 464.97 442.3 465.76 442.56 466.57 442.73 467.32 442.86 468.54 443.07 469.76 443.19 470.91 443.29L471.02 443.3 471.13 443.31 471.12 443.44C471.21 444.22 471.34 445.08 471.51 446.07 471.91 448.25 472.43 450.11 473.09 451.76 473.46 452.69 473.83 453.42 474.26 454.05 474.71 454.72 475.18 455.19 475.7 455.49 475.98 455.65 476.33 455.78 476.72 455.88 476.94 455.93 477.17 455.96 477.4 455.96 477.53 455.96 477.65 455.95 477.78 455.94 477.95 455.92 478.12 455.89 478.28 455.84 478.41 455.8 478.53 455.75 478.66 455.7 479.09 455.51 479.37 455.28 479.63 455.07 479.95 454.8 480.21 454.48 480.46 454.16 480.72 453.82 480.95 453.44 481.21 452.96 481.65 452.15 482.02 451.24 482.4 450.08 482.84 448.75 483.2 447.32 483.53 445.55 484.05 445.78 484.68 446 485.76 446.33 487.81 446.96 489.62 447.34 491.29 447.5 491.7 447.54 492.11 447.56 492.52 447.56 492.97 447.56 493.41 447.53 493.85 447.47 494.67 447.35 495.31 447.12 495.82 446.77 496.39 446.37 496.79 445.83 496.93 445.23 497.06 444.69 497 444.05 496.75 443.28 496.44 442.29 495.89 441.35 495.39 440.57 494.71 439.49 493.94 438.49 493.28 437.66 492.7 436.93 492.04 436.15 491.21 435.2L490.72 434.65 490.49 434.39C490.67 434.13 490.85 433.83 491.03 433.53 492.17 431.6 492.94 430.04 493.53 428.5 493.86 427.66 494.08 426.88 494.19 426.11 494.31 425.27 494.28 424.61 494.1 424.02 494.01 423.72 493.88 423.45 493.71 423.22 493.52 422.95 493.27 422.72 492.95 422.51 492.73 422.37 492.45 422.26 492.11 422.18 491.87 422.14 491.62 422.11 491.37 422.11 491.29 422.11 491.21 422.11 491.14 422.12L491.03 422.12C489.92 422.2 488.88 422.6 488.01 422.97 487 423.4 485.94 423.96 484.67 424.73 483.75 425.3 482.8 425.93 481.77 426.68 480.96 425.74 480.21 424.92 479.42 424.11 478.54 423.22 477.74 422.5 476.96 421.9 476.07 421.22 475.33 420.78 474.56 420.48 474.16 420.29 473.74 420.21 473.35 420.21Z" fill="#F8C166"/><path d="M632.53 460.49C631.96 460.49 631.35 460.61 630.75 460.85 629.63 461.28 628.56 461.91 627.26 462.91 626.15 463.76 624.99 464.81 623.7 466.1 622.6 467.23 621.5 468.41 620.25 469.83 618.89 468.79 617.53 467.87 616.11 467.01 614.29 465.89 612.75 465.08 611.28 464.46 610.02 463.91 608.51 463.34 606.91 463.22L606.75 463.22C606.64 463.21 606.52 463.21 606.41 463.21 606.07 463.21 605.71 463.24 605.35 463.31 604.85 463.42 604.43 463.59 604.12 463.79 603.67 464.08 603.31 464.42 603.02 464.81 602.76 465.17 602.57 465.56 602.45 465.97 602.19 466.82 602.15 467.78 602.32 468.99 602.49 470.09 602.8 471.22 603.28 472.45 604.14 474.68 605.26 476.93 606.91 479.73 607.16 480.16 607.43 480.59 607.69 481.01L607.35 481.34 606.64 482.14C605.45 483.51 604.49 484.64 603.64 485.7 602.61 487 601.53 488.42 600.59 489.92 599.87 491.06 599.08 492.41 598.62 493.84 598.26 494.96 598.17 495.88 598.37 496.67 598.57 497.53 599.14 498.33 599.99 498.91 600.75 499.43 601.69 499.76 602.85 499.93 603.5 500.02 604.14 500.06 604.77 500.06 605.3 500.06 605.88 500.03 606.55 499.97 608.98 499.74 611.6 499.18 614.56 498.27 616.08 497.8 617.02 497.48 617.83 497.16 618.24 499.61 618.75 501.69 619.41 503.68 619.96 505.37 620.51 506.69 621.14 507.85 621.49 508.52 621.84 509.07 622.23 509.58 622.59 510.04 622.97 510.52 623.43 510.91 623.81 511.23 624.22 511.55 624.72 511.77 624.94 511.87 625.17 511.97 625.39 512.03 625.61 512.1 625.86 512.15 626.12 512.18 626.3 512.21 626.49 512.22 626.68 512.22 626.98 512.22 627.31 512.18 627.67 512.11 628.23 511.97 628.73 511.78 629.15 511.54 629.9 511.12 630.59 510.44 631.25 509.45 631.87 508.53 632.4 507.47 632.93 506.14 633.89 503.76 634.64 501.06 635.22 497.9 635.47 496.47 635.66 495.22 635.79 494.09L635.8 493.86 635.92 493.89 636.08 493.88C637.61 493.75 639.42 493.58 641.27 493.25 642.3 493.07 643.51 492.83 644.68 492.44 645.56 492.15 646.57 491.78 647.44 491.16 647.81 490.89 648.2 490.59 648.48 490.24 648.79 489.87 649 489.51 649.16 489.12 649.49 488.33 649.5 487.36 649.19 486.46 648.98 485.83 648.72 485.29 648.42 484.84 648.06 484.3 647.64 483.81 647.17 483.37 646.17 482.44 644.96 481.59 643.38 480.72 641.87 479.88 640.29 479.15 638.93 478.53L636.82 477.59C636.9 477.18 636.94 476.73 636.98 476.27 637.12 474.74 637.21 473.36 637.25 472.05 637.3 470.46 637.28 469.13 637.18 467.88 637.11 467.03 636.98 465.76 636.66 464.58 636.53 464.07 636.35 463.58 636.14 463.13 635.97 462.74 635.78 462.39 635.56 462.09 635.24 461.67 634.96 461.38 634.62 461.12 634.3 460.89 633.94 460.72 633.6 460.63 633.22 460.54 632.87 460.49 632.53 460.49Z" fill="#F8C166"/><path d="M736.22 339.44C736.09 339.44 735.96 339.45 735.84 339.47 735.5 339.53 735.15 339.66 734.84 339.85 734.26 340.19 733.69 340.65 733.02 341.37 732.44 341.99 731.87 342.7 731.27 343.55 730.79 344.22 730.29 344.98 729.64 346.03 728.75 345.54 727.9 345.15 727 344.79 725.89 344.33 724.92 344.01 723.98 343.78 723.31 343.62 722.58 343.46 721.83 343.46 721.67 343.46 721.5 343.46 721.34 343.48 721.18 343.5 721.11 343.5 721.05 343.52 720.83 343.56 720.63 343.62 720.44 343.69 720.17 343.8 719.95 343.93 719.77 344.08 719.54 344.3 719.36 344.53 719.24 344.78 719.13 345 719.05 345.24 719.01 345.51 718.94 346.03 719.02 346.59 719.24 347.28 719.43 347.88 719.72 348.5 720.12 349.18 720.81 350.37 721.67 351.56 722.9 353.04 723.09 353.27 723.28 353.49 723.47 353.7L723.31 353.9 722.98 354.43C722.42 355.33 721.98 356.07 721.59 356.77 721.16 357.55 720.66 358.47 720.23 359.49 719.93 360.21 719.6 361.06 719.46 361.95 719.36 362.63 719.4 363.17 719.59 363.61 719.79 364.1 720.2 364.5 720.74 364.75 721.18 364.97 721.71 365.07 722.35 365.07L722.49 365.07C722.9 365.05 723.27 365.02 723.61 364.96 723.95 364.91 724.3 364.82 724.63 364.73 726.02 364.36 727.47 363.79 729.08 362.99 729.85 362.61 730.39 362.32 730.85 362.04 731.3 363.39 731.78 364.54 732.37 365.64 732.83 366.52 733.27 367.24 733.76 367.88 734.03 368.23 734.3 368.53 734.55 368.78 734.84 369.04 735.08 369.26 735.38 369.43 735.68 369.61 735.95 369.74 736.2 369.8 736.37 369.85 736.49 369.88 736.62 369.9 736.71 369.91 736.8 369.92 736.9 369.92L737.04 369.92C737.15 369.92 737.26 369.91 737.37 369.89 737.61 369.84 737.79 369.79 737.93 369.73 738.22 369.61 738.5 369.46 738.74 369.27 739.14 368.95 739.47 368.49 739.75 367.86 740.01 367.29 740.22 366.63 740.41 365.79 740.73 364.3 740.91 362.68 740.94 360.82 740.95 359.96 740.94 359.25 740.9 358.57L740.88 358.44 741.03 358.44C742.06 358.17 743 357.92 743.97 357.58 744.71 357.33 745.32 357.07 745.85 356.79 746.33 356.54 746.89 356.23 747.33 355.79 747.52 355.6 747.71 355.4 747.84 355.15 747.98 354.92 748.07 354.69 748.13 354.44 748.24 353.95 748.15 353.39 747.89 352.89 747.73 352.57 747.52 352.27 747.29 352.02 747.03 351.74 746.74 351.5 746.42 351.3 745.74 350.85 744.97 350.48 743.98 350.13 742.98 349.77 741.97 349.5 741.21 349.29L739.91 348.95C739.93 348.75 739.91 348.51 739.89 348.27 739.82 347.33 739.74 346.52 739.64 345.73 739.51 344.78 739.37 344.02 739.19 343.33 739.05 342.76 738.87 342.1 738.58 341.48 738.45 341.19 738.31 340.92 738.15 340.69 738.01 340.47 737.87 340.29 737.72 340.14 737.49 339.92 737.3 339.78 737.07 339.67 736.86 339.56 736.64 339.49 736.43 339.47 736.36 339.45 736.29 339.44 736.22 339.44Z" fill="#F8C166"/></g><g><defs><rect x="35.64" y="29.44" width="750" height="500" id="SVGID_1_"/></defs><clipPath id="SVGID_4_"><use width="100%" height="100%" xlink:href="#SVGID_1_" overflow="visible"></use></clipPath></g></svg>