<svg width="1167.53" height="561.5" viewBox="0 0 1167.53 561.5" xmlns="http://www.w3.org/2000/svg" xmlns:xlink="http://www.w3.org/1999/xlink" xml:space="preserve" overflow="visible"><defs></defs><rect x="209.52" y="0" width="750" height="500" fill="#C0F0EB"/><g><defs><rect x="209.52" y="0" width="750" height="500" id="SVGID_1_"/></defs><clipPath id="SVGID_2_"><use width="100%" height="100%" xlink:href="#SVGID_1_" overflow="visible"></use></clipPath><g clip-path="url(#SVGID_2_)"><path d="M202.56 426.43 976.67 426.43 976.67 561.5 193.84 561.5Z" fill="#8BCFC9"/><g opacity="0.4"><g><path d="M1 528.48C0.61 528.48 0.24 528.25 0.08 527.87-0.13 527.36 0.11 526.77 0.62 526.56L241.57 425.51C242.08 425.29 242.67 425.54 242.88 426.05 243.09 426.56 242.85 427.15 242.34 427.36L1.39 528.41C1.26 528.46 1.13 528.48 1 528.48Z"/><path d="M130.5 528.48C130.14 528.48 129.8 528.29 129.62 527.95 129.36 527.46 129.54 526.86 130.03 526.6L317.6 425.55C318.09 425.29 318.69 425.47 318.95 425.96 319.21 426.45 319.03 427.05 318.54 427.31L130.98 528.37C130.83 528.45 130.66 528.48 130.5 528.48Z"/><path d="M260.01 528.48C259.71 528.48 259.41 528.34 259.21 528.08 258.88 527.64 258.97 527.01 259.41 526.68L393.61 425.63C394.05 425.3 394.68 425.39 395.01 425.83 395.34 426.27 395.25 426.9 394.81 427.23L260.61 528.28C260.43 528.42 260.22 528.48 260.01 528.48Z"/><path d="M389.51 528.48C389.29 528.48 389.07 528.41 388.89 528.26 388.46 527.91 388.39 527.29 388.73 526.85L469.55 425.8C469.9 425.37 470.52 425.3 470.96 425.64 471.39 425.99 471.46 426.61 471.12 427.05L390.3 528.1C390.09 528.36 389.8 528.48 389.51 528.48Z"/><path d="M519.02 528.48C518.93 528.48 518.84 528.47 518.76 528.44 518.23 528.3 517.91 527.75 518.06 527.21L545.5 426.16C545.65 425.63 546.2 425.31 546.73 425.46 547.26 425.6 547.58 426.15 547.43 426.69L519.99 527.74C519.86 528.19 519.45 528.48 519.02 528.48Z"/><path d="M648.52 528.48C648.07 528.48 647.67 528.18 647.55 527.73L621.62 426.68C621.48 426.14 621.81 425.6 622.34 425.46 622.88 425.32 623.42 425.65 623.56 426.18L649.49 527.23C649.63 527.77 649.3 528.31 648.77 528.45 648.68 528.47 648.6 528.48 648.52 528.48Z"/><path d="M778.02 528.48C777.72 528.48 777.43 528.35 777.23 528.1L697.92 427.05C697.58 426.62 697.66 425.99 698.09 425.65 698.52 425.31 699.15 425.38 699.49 425.82L778.8 526.87C779.14 527.3 779.06 527.93 778.63 528.27 778.46 528.41 778.24 528.48 778.02 528.48Z"/><path d="M907.52 528.48C907.31 528.48 907.1 528.41 906.92 528.28L774.24 427.23C773.8 426.9 773.72 426.27 774.05 425.83 774.38 425.39 775.01 425.31 775.45 425.64L908.13 526.69C908.57 527.02 908.65 527.65 908.32 528.09 908.12 528.35 907.83 528.48 907.52 528.48Z"/><path d="M1037.03 528.48C1036.87 528.48 1036.71 528.44 1036.55 528.36L850.49 427.31C850 427.05 849.82 426.44 850.09 425.95 850.35 425.47 850.96 425.29 851.45 425.55L1037.51 526.6C1038 526.86 1038.18 527.47 1037.91 527.96 1037.73 528.29 1037.38 528.48 1037.03 528.48Z"/><path d="M1166.53 528.48C1166.4 528.48 1166.27 528.45 1166.14 528.4L926.71 427.35C926.2 427.14 925.96 426.55 926.18 426.04 926.39 425.53 926.98 425.29 927.49 425.51L1166.93 526.56C1167.44 526.77 1167.68 527.36 1167.46 527.87 1167.29 528.25 1166.92 528.48 1166.53 528.48Z"/></g><path d="M997.85 443.23 175.81 443.23C175.26 443.23 174.81 442.78 174.81 442.23 174.81 441.68 175.26 441.23 175.81 441.23L997.85 441.23C998.4 441.23 998.85 441.68 998.85 442.23 998.85 442.79 998.4 443.23 997.85 443.23Z"/><path d="M1051.52 473.93 122.45 473.93C121.9 473.93 121.45 473.48 121.45 472.93 121.45 472.38 121.9 471.93 122.45 471.93L1051.52 471.93C1052.07 471.93 1052.52 472.38 1052.52 472.93 1052.52 473.48 1052.07 473.93 1051.52 473.93Z"/></g><g><rect x="202.56" y="418.46" width="770.45" height="7.98" fill="#A00D23"/><rect x="202.56" y="420.25" width="770.45" height="6.19" fill="#AE0F26"/></g></g></g><g><g><g><g><g><g><g><path d="M795.08 262.5 371.56 256.84 369.2 45.23 795.03 44.27Z" fill="#008E87"/></g><path d="M800.51 37.73 796.28 42 368.43 42.98 370.79 256.99 366.05 263.15 370.78 267.35 805.34 273.39 805.23 41.93 800.51 37.73ZM794.28 260.02 381.81 254.74 379.43 55.89 794.28 55.01 794.28 260.02Z" fill="#8F4C28"/><path d="M800.62 269.19 366.06 263.15 363.7 38.78 800.5 37.74 800.62 269.19ZM377.08 250.54 789.55 255.82 789.55 50.82 374.7 51.69 377.08 250.54Z" fill="#BA6634"/></g></g><path d="M701.6 254.69 701.6 248.15C701.6 244.44 704.61 241.42 708.33 241.42L736.16 241.42C739.87 241.42 742.89 244.43 742.89 248.15L742.89 255.22 701.6 254.69Z" fill="#8F5333"/></g></g></g><g><path d="M897.66 39.35C892.51 34.49 885.53 31.5 877.72 31.45 861.07 31.34 847 44.64 846.3 61.16 845.9 70.61 849.96 79.06 856.62 84.58 861.77 89.44 868.75 92.43 876.56 92.48 893.21 92.59 907.28 79.29 907.98 62.77 908.39 53.32 904.33 44.88 897.66 39.35Z" fill="#DFD1C1"/><g><g><ellipse cx="874.89" cy="58.52" rx="30.59" ry="29.48" fill="#AE2A19" transform="matrix(0.788 -0.6156 0.6156 0.788 149.427 551.026)"/><ellipse cx="873.5" cy="57.3" rx="30.59" ry="29.48" fill="#E8563C" transform="matrix(0.7881 -0.6156 0.6156 0.7881 149.858 549.875)"/><path d="M898.38 57.46C897.8 71.09 886.18 82.07 872.44 81.98 867.79 81.95 863.49 80.66 859.87 78.43 852.77 74.07 848.23 66.16 848.62 57.14 849.2 43.51 860.81 32.53 874.55 32.62 880.02 32.66 884.99 34.44 888.98 37.44 895.01 41.96 898.74 49.26 898.38 57.46Z" fill="#AE2A19"/><path d="M898.38 57.46C897.8 71.09 886.18 82.07 872.44 81.98 867.79 81.95 863.49 80.66 859.87 78.43 853.85 73.9 850.12 66.61 850.47 58.4 851.05 44.77 862.67 33.79 876.41 33.88 881.05 33.91 885.34 35.2 888.97 37.43 895.01 41.96 898.74 49.26 898.38 57.46Z" fill="#FFF7E8"/></g><g><path d="M874.43 57.94 873.5 39.4 875.38 35.19 876.92 39.53Z" fill="#4A4A4A"/><path d="M874.43 57.94 864.19 61.92 862.56 65.71 866.71 64.26Z" fill="#4A4A4A"/><path d="M874.45 56.65C872.94 56.65 872.93 59 874.45 59 875.96 59 875.96 56.65 874.45 56.65Z" fill="#4A4A4A"/></g></g></g><g><g><g id="XMLID_4_"><g><g><path d="M392.42 61.2 391.03 70.85C391.03 70.85 394.4 68.52 399.14 65.27 397.29 64.15 394.87 62.69 392.42 61.2Z" fill="#D6E7EE"/></g><g><path d="M389.78 59.6 391.04 70.85 392.42 61.2 429.14 44.66Z" fill="#9DB6C6"/></g><g><path d="M399.14 65.27C401.14 66.49 402.48 67.3 402.48 67.3L429.13 44.66 392.42 61.2C394.87 62.69 397.29 64.15 399.14 65.27Z" fill="#FFFFFF"/></g><g><path d="M429.14 44.66 381.33 54.48C381.33 54.48 385.28 56.87 389.77 59.6L429.14 44.66Z" fill="#FFFFFF"/></g></g></g><g><path d="M387.64 64.59C386.53 65.36 385.38 66.1 384.22 66.8 383.73 67.09 383.1 66.93 382.81 66.44 382.52 65.95 382.68 65.33 383.17 65.03 384.29 64.36 385.4 63.64 386.47 62.9 386.94 62.58 387.58 62.69 387.9 63.16 388.21 63.6 388.12 64.2 387.71 64.54 387.69 64.55 387.66 64.57 387.64 64.59ZM379.74 69.21C378.5 69.81 377.25 70.36 376.01 70.85 375.48 71.06 374.89 70.8 374.68 70.27 374.47 69.74 374.73 69.15 375.26 68.94 376.45 68.47 377.66 67.94 378.85 67.36 379.36 67.11 379.97 67.33 380.22 67.84 380.43 68.27 380.31 68.79 379.95 69.08 379.89 69.13 379.82 69.17 379.74 69.21ZM371.16 72.47C369.81 72.84 368.47 73.14 367.16 73.36 366.6 73.46 366.07 73.08 365.98 72.52 365.88 71.96 366.26 71.43 366.82 71.34 368.06 71.13 369.34 70.84 370.62 70.49 371.17 70.34 371.73 70.66 371.88 71.21 371.99 71.61 371.85 72.03 371.54 72.27 371.44 72.36 371.31 72.43 371.16 72.47ZM362.04 73.87C361.02 73.89 360 73.87 359.01 73.79 358.66 73.76 358.27 73.72 357.86 73.65 357.3 73.56 356.92 73.03 357.02 72.47 357.11 71.91 357.64 71.53 358.2 71.63 358.55 71.69 358.87 71.73 359.17 71.75 359.37 71.76 359.56 71.78 359.76 71.79 359.73 71.6 359.76 71.4 359.84 71.21 359.96 70.95 360.06 70.71 360.13 70.46 360.39 69.6 360.51 68.69 360.49 67.77 360.48 67.2 360.93 66.73 361.49 66.72 362.06 66.71 362.53 67.16 362.54 67.72 362.57 68.87 362.41 69.99 362.09 71.06 362.01 71.31 361.92 71.57 361.81 71.83 361.87 71.83 361.93 71.83 361.99 71.83 362.56 71.82 363.03 72.27 363.04 72.83 363.05 73.16 362.9 73.45 362.67 73.65 362.5 73.77 362.28 73.86 362.04 73.87ZM354.21 79.12C353.84 78.69 353.88 78.04 354.31 77.67 355.37 76.75 356.31 75.84 357.11 74.97 357.49 74.56 358.15 74.53 358.56 74.92 358.98 75.31 359 75.96 358.61 76.37 357.76 77.29 356.76 78.25 355.65 79.22 355.64 79.23 355.63 79.23 355.63 79.24 355.21 79.59 354.58 79.54 354.21 79.12ZM351.68 82.39C350.58 83.19 349.45 83.96 348.32 84.68 347.84 84.98 347.21 84.84 346.9 84.37 346.6 83.89 346.73 83.26 347.21 82.95 348.3 82.25 349.4 81.51 350.46 80.73 350.92 80.4 351.56 80.5 351.89 80.95 352.21 81.39 352.13 82 351.71 82.35 351.71 82.36 351.69 82.37 351.68 82.39ZM343.91 87.23 343.5 87.44C342.99 87.69 342.38 87.49 342.12 86.98 341.87 86.47 342.07 85.86 342.58 85.6L342.98 85.4C343.48 85.14 344.1 85.34 344.36 85.85 344.58 86.29 344.46 86.81 344.1 87.11 344.04 87.16 343.98 87.2 343.91 87.23ZM352.85 72.18C351.47 71.62 350.22 70.97 349.12 70.26 348.64 69.95 348.51 69.32 348.82 68.84 349.13 68.36 349.76 68.23 350.24 68.54 351.23 69.18 352.37 69.77 353.62 70.28 354.15 70.49 354.4 71.09 354.18 71.62 354.11 71.78 354.01 71.92 353.88 72.02 353.6 72.25 353.21 72.33 352.85 72.18ZM360.72 63.85C360.22 64.12 359.6 63.94 359.33 63.44 359.04 62.9 358.7 62.4 358.32 61.93 357.94 61.47 357.51 61.04 357.06 60.67 356.62 60.31 356.56 59.66 356.91 59.23 357.27 58.79 357.92 58.73 358.35 59.08 358.91 59.54 359.43 60.06 359.9 60.62 360.36 61.18 360.78 61.8 361.13 62.45 361.37 62.89 361.25 63.43 360.88 63.73 360.84 63.78 360.78 63.82 360.72 63.85ZM346.66 66.81C346.16 67.07 345.54 66.88 345.28 66.37 344.48 64.84 344.39 63.25 345 61.66 345.2 61.13 345.8 60.87 346.33 61.07 346.86 61.27 347.12 61.87 346.92 62.4 346.52 63.43 346.59 64.42 347.11 65.42 347.34 65.86 347.22 66.38 346.85 66.69 346.78 66.74 346.72 66.78 346.66 66.81ZM353.07 58.92C351.91 58.78 350.72 58.96 349.7 59.42 349.18 59.65 348.58 59.42 348.34 58.91 348.11 58.39 348.33 57.79 348.85 57.55 350.2 56.94 351.78 56.7 353.3 56.88 353.86 56.95 354.27 57.46 354.2 58.02 354.17 58.29 354.03 58.53 353.83 58.69 353.63 58.86 353.36 58.95 353.07 58.92Z" fill="#FFFFFF"/></g></g><g><g id="XMLID_3_"><g><g><path d="M781.6 123.7 789.34 129.63C789.34 129.63 785.31 130.32 779.64 131.31 780.19 129.21 780.9 126.48 781.6 123.7Z" fill="#D6E7EE"/></g><g><path d="M782.38 120.71 789.35 129.63 781.6 123.7 743.8 137.58Z" fill="#9DB6C6"/></g><g><path d="M779.65 131.31C779.08 133.58 778.68 135.1 778.68 135.1L743.8 137.57 781.61 123.7C780.9 126.48 780.19 129.21 779.65 131.31Z" fill="#FFFFFF"/></g><g><path d="M743.8 137.58 784.83 111.15C784.83 111.15 783.68 115.62 782.38 120.71L743.8 137.58Z" fill="#FFFFFF"/></g></g></g><g><path d="M786.21 121.94C786.11 121.38 786.49 120.85 787.05 120.76 788.33 120.54 789.63 120.28 790.9 119.97 791.45 119.84 792.01 120.18 792.14 120.73 792.27 121.28 791.93 121.84 791.38 121.97 790.06 122.29 788.72 122.56 787.39 122.79 787.33 122.8 787.27 122.8 787.22 122.8 786.73 122.79 786.29 122.44 786.21 121.94ZM794.97 119.91C794.79 119.37 795.08 118.79 795.62 118.61 796.88 118.19 798.11 117.72 799.29 117.22 799.81 117 800.41 117.24 800.63 117.77 800.85 118.29 800.61 118.89 800.08 119.12 798.85 119.64 797.57 120.12 796.27 120.56 796.16 120.6 796.05 120.61 795.94 120.61 795.51 120.61 795.11 120.34 794.97 119.91ZM803.28 116.48C803 115.98 803.18 115.36 803.68 115.08 804.84 114.44 805.95 113.74 806.99 113.03 807.46 112.71 808.1 112.82 808.42 113.29 808.74 113.76 808.63 114.4 808.16 114.72 807.07 115.48 805.89 116.21 804.67 116.88 804.51 116.97 804.34 117.01 804.17 117.01 803.82 117.01 803.47 116.82 803.28 116.48ZM810.73 111.45C810.34 111.04 810.36 110.39 810.78 110 810.82 109.96 810.87 109.92 810.91 109.88 810.65 109.77 810.4 109.65 810.17 109.53 809.19 108.99 808.29 108.3 807.51 107.46 807.12 107.05 807.14 106.4 807.56 106.01 807.97 105.62 808.62 105.64 809.01 106.06 809.64 106.74 810.37 107.3 811.16 107.73 811.38 107.85 811.62 107.96 811.89 108.06 812.09 108.13 812.25 108.26 812.36 108.42 812.49 108.27 812.63 108.12 812.76 107.98 812.96 107.76 813.16 107.5 813.37 107.22 813.7 106.76 814.34 106.66 814.8 106.99 815.26 107.32 815.36 107.97 815.03 108.42 814.78 108.76 814.54 109.06 814.31 109.33 813.66 110.07 812.95 110.81 812.2 111.51 812 111.7 811.75 111.79 811.5 111.79 811.2 111.77 810.93 111.67 810.73 111.45ZM816.37 110.89C815.8 110.86 815.37 110.38 815.39 109.82 815.42 109.25 815.87 108.82 816.47 108.84 817.67 108.9 818.97 108.89 820.36 108.81 820.93 108.78 821.41 109.21 821.44 109.78 821.47 110.35 821.04 110.83 820.47 110.86 819.62 110.91 818.79 110.93 818.01 110.93 817.45 110.93 816.9 110.92 816.37 110.89ZM824.38 109.47C824.3 108.91 824.69 108.39 825.25 108.31 826.54 108.12 827.85 107.89 829.13 107.62 829.68 107.51 830.23 107.86 830.34 108.41 830.46 108.96 830.1 109.51 829.55 109.63 828.23 109.91 826.88 110.15 825.55 110.34 825.5 110.35 825.45 110.35 825.4 110.35 824.89 110.35 824.45 109.98 824.38 109.47ZM833.2 107.69C833.03 107.15 833.33 106.57 833.87 106.4L834.29 106.27C834.83 106.1 835.41 106.39 835.58 106.93 835.75 107.47 835.46 108.05 834.92 108.22L834.48 108.36C834.38 108.39 834.27 108.41 834.17 108.41 833.74 108.41 833.33 108.13 833.2 107.69ZM816.22 104.39C815.7 104.16 815.46 103.56 815.68 103.04 816.22 101.79 816.62 100.58 816.88 99.43 817 98.88 817.55 98.53 818.11 98.65 818.66 98.77 819.01 99.32 818.89 99.88 818.6 101.15 818.16 102.49 817.57 103.86 817.4 104.25 817.02 104.48 816.63 104.48 816.49 104.48 816.35 104.45 816.22 104.39ZM804.84 102.71C804.55 101.68 804.4 100.63 804.4 99.58 804.4 99.17 804.42 98.76 804.47 98.36 804.53 97.8 805.05 97.4 805.6 97.45 806.16 97.51 806.57 98.02 806.51 98.58 806.47 98.91 806.45 99.25 806.45 99.58 806.45 100.44 806.57 101.3 806.81 102.15 806.97 102.7 806.65 103.26 806.1 103.42 806.01 103.45 805.91 103.46 805.82 103.46 805.38 103.46 804.97 103.16 804.84 102.71ZM816.95 95.01C816.62 93.93 815.97 93.18 814.97 92.72 814.45 92.48 814.23 91.87 814.47 91.36 814.71 90.85 815.31 90.62 815.83 90.86 817.38 91.57 818.41 92.77 818.92 94.42 819.09 94.96 818.78 95.54 818.24 95.7 818.14 95.73 818.04 95.74 817.94 95.74 817.49 95.74 817.09 95.45 816.95 95.01ZM806.69 94.69C806.25 94.33 806.18 93.69 806.54 93.25 807.5 92.06 808.8 91.12 810.19 90.61 810.72 90.42 811.31 90.69 811.51 91.22 811.71 91.75 811.43 92.34 810.9 92.54 809.85 92.92 808.88 93.63 808.14 94.54 807.94 94.79 807.64 94.92 807.34 94.92 807.1 94.92 806.87 94.84 806.69 94.69Z" fill="#FFFFFF"/></g></g></g></g><g><defs><rect x="209.52" y="0" width="750" height="500" id="SVGID_3_"/></defs><clipPath id="SVGID_4_"><use width="100%" height="100%" xlink:href="#SVGID_3_" overflow="visible"></use></clipPath><g clip-path="url(#SVGID_4_)"><g opacity="0.15"><ellipse cx="217.53" cy="464.72" rx="152.14" ry="17.29" fill="#290504"/><ellipse cx="951.52" cy="452.45" rx="152.14" ry="17.29" fill="#290504"/><path d="M915.94 471.52C915.94 480.95 873.9 488.6 822.04 488.6 787.1 488.6 756.62 485.13 740.45 479.98 724.28 485.13 693.8 488.6 658.85 488.6 625.09 488.6 595.5 485.36 578.95 480.5 562.4 485.36 532.81 488.6 499.05 488.6 461.35 488.6 428.84 484.56 413.9 478.73 398.96 484.56 366.45 488.6 328.75 488.6 276.89 488.6 234.85 480.95 234.85 471.52 234.85 462.09 276.89 454.44 328.75 454.44 366.45 454.44 398.96 458.48 413.9 464.31 428.84 458.48 461.35 454.44 499.05 454.44 532.81 454.44 562.4 457.68 578.95 462.54 595.5 457.68 625.09 454.44 658.85 454.44 693.8 454.44 724.28 457.91 740.45 463.06 756.62 457.91 787.1 454.44 822.04 454.44 873.9 454.44 915.94 462.09 915.94 471.52Z" fill="#290504"/></g><g><g><g><rect x="246.57" y="302.02" width="9.57" height="14.47" fill="#434E55"/><g><rect x="214.79" y="264.13" width="73.13" height="1.45" fill="#434E55" transform="matrix(0.7071 -0.7071 0.7071 0.7071 -113.662 255.311)"/></g><g><path d="M251.36 303.46C241.47 303.46 231.58 299.7 224.05 292.17 223.48 291.6 223.48 290.68 224.05 290.11 224.62 289.54 225.54 289.54 226.11 290.11 240.04 304.03 262.69 304.03 276.62 290.11 290.54 276.19 290.54 253.53 276.62 239.6 276.05 239.03 276.05 238.11 276.62 237.54 277.19 236.97 278.11 236.97 278.68 237.54 293.74 252.6 293.74 277.1 278.68 292.16 271.14 299.7 261.25 303.46 251.36 303.46Z" fill="#5C666B"/></g><path d="M267.5 316.49 235.22 316.49C232.5 316.49 230.29 318.7 230.29 321.42L230.29 321.42 272.44 321.42 272.44 321.42C272.43 318.7 270.22 316.49 267.5 316.49Z" fill="#5C666B"/><g><ellipse cx="251.36" cy="264.86" rx="32.61" ry="32.54" fill="#00A1DF" transform="matrix(0.7065 -0.7077 0.7077 0.7065 -113.67 255.633)"/><g><path d="M271.95 239.62C271.19 239 270.4 238.41 269.58 237.85 269.42 237.94 269.26 238.05 269.1 238.19 269.5 238.69 269.9 239.19 270.17 239.54 270.78 239.56 271.37 239.59 271.95 239.62Z" fill="#49DE67"/><path d="M246.69 233.67C247.22 234.29 248.31 234.17 248.89 234.92 248.98 235.04 249.35 234.95 249.59 234.95 249.44 235.31 249.31 235.6 249.08 236.14 250.02 236.5 251.17 236.57 251.6 237.17 252.72 238.71 254.2 238.91 256.2 239 255.72 238.34 255.1 237.85 255.16 237.47 255.28 236.77 255.56 236.2 254.62 235.89 254.94 235.63 255.24 235.37 255.54 235.13 255.45 234.76 255.36 234.42 255.26 234.02 255.48 233.91 255.74 233.85 255.89 233.69 256.03 233.53 256.06 233.27 256.2 232.87 255.82 232.76 255.47 232.67 255.14 232.5 253.9 232.36 252.63 232.27 251.35 232.27 249.32 232.27 247.33 232.47 245.41 232.82 245.87 232.94 246.29 233.21 246.69 233.67Z" fill="#49DE67"/><path d="M278.96 247.57C278.95 247.58 278.94 247.6 278.92 247.61 277.84 248.49 277.93 249.51 278.2 250.65 278.32 251.13 278.51 251.69 278.38 252.12 277.76 254.08 278.36 256.1 277.81 258.13 278.27 258.11 278.51 258.1 279.02 258.08 279.11 259.08 279.78 259.87 279.24 260.88 279.06 261.22 279.27 262.16 279.57 262.31 281.2 263.16 281.23 265.36 282.92 265.99 283.24 265.75 283.58 265.5 283.92 265.25 283.92 265.11 283.93 264.98 283.93 264.85 283.93 258.5 282.11 252.58 278.96 247.57Z" fill="#49DE67"/><path d="M229.06 266.95C229.04 266.68 229 266.2 228.95 265.49 229.4 265.81 229.72 265.97 229.95 266.21 230.51 266.79 230.96 267.49 231.57 267.99 232.23 268.53 233.03 268.9 232.68 269.97 234.35 270.91 236.04 271.82 238.05 271.46 238.98 271.3 239.83 270.95 240.71 271.72 241.17 272.12 241.9 272.24 242.54 272.39 242.68 272.42 242.91 272.05 243.09 271.87 246.09 274.52 246.15 274.53 249.56 273.41 249.54 273.33 249.51 273.17 249.5 273.17 249.01 273.19 248.52 273.24 248.02 273.26 246.37 273.31 246.05 272.97 245.76 271.23 245.67 270.72 245.24 270.26 244.98 269.81 243.94 270 243.13 270.16 242.27 270.32 242.36 269.15 242.43 268.17 242.51 267.14 241.87 267.3 241.36 267.43 240.85 267.56 240.59 268.29 240.73 269.16 239.65 269.51 238.51 269.88 237.89 269.15 237.13 268.73 236.79 267.36 236.45 266.02 236.12 264.69 237.6 262.84 237.6 262.84 239.78 262.94 239.81 262.62 239.85 262.3 239.91 261.78 241.01 261.74 242.13 261.71 243.01 261.68 243.87 262.65 244.61 263.47 245.47 264.44 245.74 262.77 244.52 261.82 244.12 260.38 244.76 259.63 245.47 258.81 246.15 257.97 246.76 257.2 246.71 257.01 245.71 255.87 246.05 255.53 246.64 255.22 246.69 254.85 246.84 253.64 247.78 253.17 248.56 252.53 248.51 252.12 248.45 251.71 248.4 251.31 249.03 250.97 249.61 250.65 250.16 250.35 250.31 250.66 250.41 250.88 250.56 251.18 251.44 250.32 252.25 249.53 253.06 248.75 252.96 248.64 252.86 248.52 252.76 248.41 252.33 248.72 251.9 249.02 251.37 249.4 251.01 249.17 250.61 248.91 250.03 248.54 250.72 247.71 251.46 247.1 251.8 246.32 252.19 245.42 253.25 245.33 253.76 244.61 252.97 243.76 252.19 243.38 251.23 243.29 250.51 243.22 249.9 242.92 249.47 242.26 249.21 241.86 248.83 241.53 248.45 241.22 248.28 241.09 247.99 241.11 247.72 241.06 247.58 241.54 247.47 241.96 247.31 242.53 245.62 242.04 244.81 239.36 242.64 240.95 242.84 241.93 242.19 243.11 243.24 244 243.38 244.12 243.45 244.62 243.34 244.71 242.34 245.59 243.05 246.76 242.93 247.73 241.1 247.98 241.37 246.39 240.96 245.69 240.11 245.71 239.44 245.81 238.81 245.71 238.17 245.6 237.56 245.31 236.96 245.05 236.3 244.77 236.17 244.19 236.33 243.58 236.6 242.56 237.6 241.99 237.98 240.96 238.2 240.37 239.19 240.94 239.83 240.94 240.31 240.94 240.79 240.72 241.81 240.47 240.84 240.1 240.37 239.92 239.94 239.75 240.26 239.14 240.56 238.7 240.73 238.23 241.34 236.46 241.58 236.34 243.13 237.16 243.36 237.28 243.58 237.42 243.88 237.59 243.33 238.29 242.8 238.97 242.26 239.66 244.02 239.43 244.02 239.43 246.09 240.51 246.53 240.12 246.98 239.72 247.38 239.37 247.11 239.09 246.88 238.86 246.67 238.65 246.95 238.07 247.18 237.6 247.4 237.14 245.35 236.25 243.45 235.42 241.68 234.65 240.67 234.85 239.8 235.02 238.93 235.19 238.9 235.06 238.87 234.93 238.85 234.8 239.64 234.6 240.44 234.4 241.16 234.22 241.2 234.1 241.24 233.99 241.28 233.88 239.58 234.43 237.94 235.12 236.38 235.93 236.26 236.12 236.14 236.31 236.02 236.5 236.29 236.89 236.6 237.32 237.24 238.22 236.18 237.94 235.68 237.8 235.27 237.69 235.38 237.17 235.45 236.8 235.51 236.54 235.45 236.53 235.4 236.52 235.34 236.5 234.16 237.17 233.02 237.9 231.94 238.71 231.81 238.91 231.71 239.06 231.63 239.19 231.56 239.17 231.48 239.15 231.4 239.12 228.02 241.75 225.18 245.02 223.05 248.76 223.05 248.8 223.05 248.84 223.04 248.89 222.96 249.53 223.41 250.22 223.49 250.91 223.58 251.63 223.39 252.4 223.55 253.09 223.94 254.8 223.99 254.79 223.75 256.13 223.71 256.37 223.69 256.61 223.66 256.85 223.44 258.57 223.4 260.17 224.54 261.74 225.15 262.59 226.12 262.71 226.66 263.46 226.79 263.97 227.02 264.47 227.01 264.98 227.01 265.5 228.24 265.62 227.56 266.21 228.06 266.46 228.62 266.73 229.06 266.95ZM236.94 236.43C237.47 236.3 237.86 236.2 238.44 236.05 238.82 236.63 239.28 237.34 239.74 238.06 239.59 238.19 239.44 238.32 239.3 238.45 238.56 237.82 237.82 237.18 236.94 236.43Z" fill="#49DE67"/><path d="M270.76 274.02C269.77 274.4 268.83 274.12 267.86 273.9 267.51 273.82 267.06 274.14 266.52 274.32 265.9 273.49 265.13 272.47 264.31 271.39 263.38 271.41 262.32 271.43 261.18 271.45 259.92 270.92 258.55 270.35 257.26 269.8 256.73 270.25 256.6 270.78 255.73 270.55 254.81 270.31 253.63 269.8 252.79 270.94 252.61 270.57 252.5 270.36 252.31 269.97 251.79 270.56 251.67 271.41 250.78 271.53 249.74 271.67 250.74 273.28 249.56 273.42 249.79 274.34 250.02 275.27 250.34 276.51 249.92 277.18 249.39 278.05 248.85 278.92 249.74 279.48 248.96 280.51 249.33 281.15 250.26 281.77 251.14 282.3 251.94 282.93 252.63 283.48 253.15 284.29 253.88 284.75 254.69 285.26 255.67 285.5 256.38 285.78 257.28 288.63 257.53 291.23 257 293.88 257.17 294.14 257.56 294.48 257.54 294.8 257.5 295.48 257.55 296.15 257.64 296.8 258.43 296.65 259.21 296.46 259.98 296.25 260.38 294.92 260.92 293.66 262.18 292.85 262.74 292.49 263.05 292.15 263.26 291.59 263.36 291.33 263.43 290.93 263.63 290.85 265.5 290.06 266.33 288.47 266.84 286.66 267.12 285.68 267.88 285.01 268.63 284.8 270.23 284.35 270.62 283.19 271.03 281.87 271.65 279.89 272.06 277.81 273.45 276.16 273.5 276.09 273.58 276.01 273.58 275.94 273.59 275.53 273.59 275.12 273.58 274.6 272.51 274.85 271.84 273.6 270.76 274.02Z" fill="#49DE67"/><path d="M261.76 234.14C260.51 233.62 260.51 233.62 258.61 234.29 260.47 235.51 260.47 235.51 261.76 234.14Z" fill="#49DE67"/><path d="M273.26 240.74C273.22 240.95 273.16 241.18 273.1 241.47 273.69 241.79 274.37 242.16 275.08 242.55 274.5 241.93 273.9 241.32 273.26 240.74Z" fill="#49DE67"/><path d="M255.64 246.49C254.84 246.18 254.18 245.92 253.52 245.67 253.47 245.98 253.44 246.3 253.38 246.62 253.32 246.92 253.24 247.22 253.15 247.58 254.15 247.55 255 247.53 255.89 247.51 255.79 247.1 255.7 246.71 255.64 246.49Z" fill="#49DE67"/><path d="M278.38 247.54C278.26 247.25 278.31 246.96 278.39 246.67 277.53 245.39 276.58 244.18 275.55 243.05 275.22 243.44 274.88 243.85 274.68 244.09 275.37 245.28 275.94 246.26 276.51 247.24 277.01 247.32 277.56 247.41 278.38 247.54Z" fill="#49DE67"/><path d="M250.47 266.76C250.81 267.01 251.19 267.29 251.55 267.56 252.4 266.18 254.11 266.84 255.42 265.72 253.62 265.89 252.17 266.02 250.72 266.18 250.64 266.19 250.59 266.45 250.47 266.76Z" fill="#49DE67"/><path d="M247.16 265.7C245.73 264.74 244.63 265.66 243.3 265.97 244.07 267.62 244.46 266.2 244.95 266 246.42 265.89 247.77 267.68 249.48 266.22 249.25 265.98 249.06 265.61 248.85 265.6 248.27 265.56 247.52 265.95 247.16 265.7Z" fill="#49DE67"/></g><path d="M270 238.15C273.69 243.43 275.87 249.86 275.87 256.79 275.87 274.78 261.28 289.37 243.29 289.37 236.35 289.37 229.93 287.2 224.65 283.5 230.54 291.92 240.3 297.43 251.36 297.43 269.35 297.43 283.94 282.84 283.94 264.85 283.93 253.8 278.42 244.04 270 238.15Z" fill="#E4E6E7"/></g></g><g><g><path d="M273.8 418.11 273.8 455.58 283.67 455.58 283.67 418.46Z" fill="#91491C"/><path d="M283.67 455.58 278.74 455.58 278.74 418.11 283.67 418.23Z" fill="#B05625"/></g><path d="M182.44 331.59 362.3 331.59 362.3 320.4 182.44 321.57Z" fill="#B05625"/><path d="M102.23 333.65 182.44 331.59 182.44 321.57 101.17 321.22Z" fill="#91491C"/><g><rect x="111.57" y="418.46" width="9.87" height="37.12" fill="#91491C"/><rect x="116.51" y="418.46" width="4.94" height="37.12" fill="#B05625"/></g><g><path d="M177.51 418.11 177.51 465.07 187.38 465.07 187.38 418.55Z" fill="#91491C"/><path d="M187.38 465.07 182.44 465.07 182.44 418.11 187.38 418.26Z" fill="#B05625"/></g><g><path d="M340.33 418.11 340.33 465.07 350.2 465.07 350.2 418.55Z" fill="#91491C"/><path d="M350.2 465.07 345.27 465.07 345.27 418.11 350.2 418.26Z" fill="#B05625"/></g><g><g><rect x="238.17" y="367.81" width="58.56" height="50.65" fill="#91491C"/><path d="M282.6 418.46 238.17 418.46 238.17 367.81 296.73 367.81Z" fill="#EEDDCE"/></g><g><path d="M108.74 329.89 111.57 418.46 182.44 418.37 182.44 331.59Z" fill="#91491C"/><g><path d="M182.44 331.59 182.44 418.37 245.05 418.46 245.05 367.81 296.73 367.81 296.73 418.46 350.33 418.46 350.33 331.59Z" fill="#B05625"/><g><path d="M238.94 411.91 188.5 411.91 188.5 336.1 238.94 336.1 238.94 411.91ZM190.04 410.38 237.4 410.38 237.4 337.65 190.04 337.65 190.04 410.38Z" fill="#91491C"/><path d="M346.04 411.91 302.47 411.91 302.47 336.1 346.04 336.1 346.04 411.91ZM304 410.38 344.5 410.38 344.5 337.65 304 337.65 304 410.38Z" fill="#91491C"/><path d="M297.5 361.37 244.28 361.37 244.28 335.19 297.5 335.19 297.5 361.37ZM245.82 359.83 295.96 359.83 295.96 336.73 245.82 336.73 245.82 359.83Z" fill="#91491C"/></g></g></g><path d="M108.96 336.87 182.44 336.87 335.56 345.03 350.2 418.23 350.33 331.59 182.44 331.59 108.74 333.48Z" fill="#EEDDCE"/></g></g></g><g><g><g><path d="M914.83 300.4C911.48 300.38 908.74 303.3 908.72 306.9 908.7 310.5 911.41 313.44 914.76 313.46L963.74 313.72 963.81 300.66 914.83 300.4Z" fill="#F7FAFB"/><g><g><rect x="937.13" y="284.11" width="1.01" height="52.23" fill="#C7D9E2" transform="matrix(0.00530945 -1 1 0.00530945 622.442 1246.2)"/></g><g><rect x="936.63" y="281.47" width="1.01" height="53.26" fill="#C7D9E2" transform="matrix(0.00531004 -1 1 0.00531004 624.059 1243.59)"/></g><g><rect x="936.64" y="279.36" width="1.01" height="53.26" fill="#C7D9E2" transform="matrix(0.00530817 -1 1 0.00530817 626.186 1241.5)"/></g><g><rect x="937.17" y="277.76" width="1.01" height="52.23" fill="#C7D9E2" transform="matrix(0.00530917 -1 1 0.00530917 628.818 1239.92)"/></g></g><path d="M964.96 299.32 914.83 299.05C910.79 299.03 907.48 302.54 907.46 306.89 907.44 311.23 910.71 314.78 914.75 314.8L964.88 315.07 964.89 312.38 914.76 312.11C912.1 312.1 909.95 309.76 909.96 306.9 909.98 304.04 912.15 301.73 914.81 301.74L964.94 302.01 964.96 299.32Z" fill="#0073B4"/></g><g><path d="M966.23 297.98C969.58 298 972.32 295.08 972.34 291.48 972.36 287.88 969.65 284.94 966.3 284.92L917.32 284.66 917.25 297.72 966.23 297.98Z" fill="#F7FAFB"/><g><g><rect x="942.92" y="262.04" width="1.01" height="52.23" fill="#C7D9E2" transform="matrix(0.00530942 -1 1 0.00530942 650.26 1230.04)"/></g><g><rect x="943.42" y="263.65" width="1.01" height="53.26" fill="#C7D9E2" transform="matrix(0.00531002 -1 1 0.00531002 648.641 1232.65)"/></g><g><rect x="943.41" y="265.76" width="1.01" height="53.26" fill="#C7D9E2" transform="matrix(0.00531001 -1 1 0.00531001 646.516 1234.74)"/></g><g><rect x="942.89" y="268.39" width="1.01" height="52.23" fill="#C7D9E2" transform="matrix(0.00530913 -1 1 0.00530913 643.884 1236.32)"/></g></g><path d="M916.1 299.06 966.23 299.33C970.27 299.35 973.58 295.84 973.6 291.49 973.62 287.15 970.35 283.6 966.31 283.58L916.18 283.31 916.17 286 966.3 286.27C968.96 286.28 971.11 288.62 971.1 291.48 971.08 294.34 968.91 296.65 966.25 296.64L916.12 296.37 916.1 299.06Z" fill="#FF6700"/></g><g><path d="M971.8 282.26C975.15 282.28 977.89 279.36 977.91 275.76 977.93 272.16 975.22 269.22 971.87 269.2L922.89 268.94 922.82 282 971.8 282.26Z" fill="#F7FAFB"/><g><g><rect x="948.48" y="246.33" width="1.01" height="52.23" fill="#C7D9E2" transform="matrix(0.00530945 -1 1 0.00530945 671.513 1219.97)"/></g><g><rect x="948.99" y="247.93" width="1.01" height="53.26" fill="#C7D9E2" transform="matrix(0.00530814 -1 1 0.00530814 669.896 1222.58)"/></g><g><rect x="948.98" y="250.04" width="1.01" height="53.26" fill="#C7D9E2" transform="matrix(0.00530814 -1 1 0.00530814 667.772 1224.67)"/></g><g><rect x="948.45" y="252.67" width="1.01" height="52.23" fill="#C7D9E2" transform="matrix(0.00531105 -1 1 0.00531105 665.136 1226.24)"/></g></g><path d="M921.66 283.34 971.79 283.61C975.83 283.63 979.14 280.12 979.16 275.77 979.18 271.43 975.91 267.88 971.87 267.86L921.74 267.59 921.73 270.28 971.86 270.55C974.52 270.56 976.67 272.9 976.66 275.76 976.65 278.62 974.47 280.93 971.81 280.92L921.68 280.65 921.66 283.34Z" fill="#52B073"/></g></g><g><g><path d="M896.76 411.76 896.76 449.23 886.89 449.23 886.89 412.11Z" fill="#91491C"/><path d="M886.89 449.23 891.82 449.23 891.82 411.76 886.89 411.88Z" fill="#B05625"/></g><path d="M988.12 325.24 808.26 325.24 808.26 314.05 988.12 315.23Z" fill="#B05625"/><path d="M1068.33 327.3 988.12 325.24 988.12 315.23 1069.39 314.87Z" fill="#91491C"/><g><rect x="1049.11" y="412.11" width="9.87" height="37.12" fill="#91491C"/><rect x="1049.11" y="412.11" width="4.94" height="37.12" fill="#B05625"/></g><g><path d="M993.05 411.76 993.05 458.72 983.18 458.72 983.18 412.2Z" fill="#91491C"/><path d="M983.18 458.72 988.12 458.72 988.12 411.76 983.18 411.91Z" fill="#B05625"/></g><g><path d="M830.23 411.76 830.23 458.72 820.35 458.72 820.35 412.2Z" fill="#91491C"/><path d="M820.35 458.72 825.29 458.72 825.29 411.76 820.35 411.91Z" fill="#B05625"/></g><g><g><rect x="873.83" y="361.46" width="58.56" height="50.65" fill="#91491C"/><path d="M887.96 412.11 932.39 412.11 932.39 361.46 873.83 361.46Z" fill="#EEDDCE"/></g><g><path d="M1061.82 323.55 1058.99 412.11 988.12 412.02 988.12 325.24Z" fill="#91491C"/><g><path d="M988.12 325.24 988.12 412.02 925.51 412.11 925.51 361.46 873.83 361.46 873.83 412.11 820.22 412.11 820.22 325.24Z" fill="#B05625"/><g><path d="M931.62 329.76 982.06 329.76 982.06 405.57 931.62 405.57 931.62 329.76ZM980.52 331.3 933.16 331.3 933.16 404.03 980.52 404.03 980.52 331.3Z" fill="#91491C"/><path d="M824.52 329.76 868.09 329.76 868.09 405.57 824.52 405.57 824.52 329.76ZM866.56 331.3 826.06 331.3 826.06 404.03 866.56 404.03 866.56 331.3Z" fill="#91491C"/><path d="M873.06 328.85 926.28 328.85 926.28 355.03 873.06 355.03 873.06 328.85ZM924.74 330.38 874.6 330.38 874.6 353.48 924.74 353.48 924.74 330.38Z" fill="#91491C"/></g></g></g><path d="M1061.59 330.53 988.12 330.53 835 338.69 820.35 411.88 820.22 325.24 988.12 325.24 1061.82 327.13Z" fill="#EEDDCE"/></g></g></g><g><g><path d="M315.05 61.17 297.44 61.17 249.67 24.02C249.52 23.44 249.06 22.95 248.29 22.95 247.51 22.95 247.06 23.44 246.91 24.02L204.6 61.17 186.32 61.17 184.17 187.83 186.77 190.39 317.65 188.29 317.65 63.73 315.05 61.17ZM246.92 24.95C247.09 25.49 247.54 25.94 248.28 25.94 249.02 25.94 249.47 25.5 249.64 24.95L296.19 61.17 205.82 61.17 246.92 24.95Z" fill="#DFD1C1"/><g><g><path d="M192.88 64.76C192.77 64.76 192.66 64.71 192.58 64.61 192.46 64.44 192.49 64.21 192.65 64.08L247.68 22.34C247.84 22.22 248.08 22.25 248.21 22.41 248.33 22.58 248.3 22.81 248.14 22.94L193.1 64.68C193.04 64.73 192.96 64.76 192.88 64.76Z" fill="#4A4A4A"/><path d="M302.94 64.76C302.86 64.76 302.78 64.74 302.71 64.68L247.68 22.94C247.51 22.82 247.48 22.58 247.61 22.41 247.74 22.24 247.97 22.21 248.14 22.34L303.17 64.08C303.33 64.2 303.37 64.44 303.24 64.61 303.17 64.71 303.06 64.76 302.94 64.76Z" fill="#4A4A4A"/><path d="M247.91 22.15C245.99 22.15 245.99 25.14 247.91 25.14 249.83 25.13 249.83 22.15 247.91 22.15Z" fill="#4A4A4A"/></g><g><g><path d="M190.09 64.38 186.65 179.48 311.94 176.92 308.73 59.94Z" fill="#EBE3D5"/><g><path d="M311.94 57.38 308.73 59.94 185.81 59.94 183.8 178.78 181.07 184.04 183.67 186.6 314.55 184.5 314.55 59.94 311.94 57.38ZM307.54 177.61 190.78 179.48 192.69 66.94 307.54 66.94 307.54 177.61Z" fill="#8F4C28"/><path d="M181.06 184.04 183.21 57.38 311.95 57.38 311.95 181.93 181.06 184.04ZM190.09 64.38 188.18 176.92 304.94 175.05 304.94 64.38 190.09 64.38Z" fill="#BA6634"/></g></g><g><path d="M211.74 128.55 239.13 128.55 239.89 105.28 271.23 105.28 271.31 78.5 206.94 78.5 206.94 105.28 214.58 105.28Z" fill="#CCE3ED"/><path d="M262.16 120.02 262.16 151.03 237.23 151.03 237.23 161.77 262.16 161.77 262.16 167.92 296.7 167.92 296.7 120.02Z" fill="#CCE3ED"/><rect x="208.23" y="142.1" width="21.74" height="20.68" fill="#CCE3ED"/></g><g><path d="M204.48 102.78 204.48 76 268.84 76 268.76 102.78Z" fill="#FFF7E8"/><path d="M214.64 82.06 238.1 82.06 236.66 126.05 209.28 126.05Z" fill="#F9BC26"/><rect x="259.69" y="117.52" width="34.54" height="47.91" fill="#FFF7E8"/><rect x="234.76" y="148.53" width="40.11" height="10.74" fill="#E8563C"/><rect x="264.24" y="123.18" width="14.58" height="6.38" fill="#E8563C"/><rect x="205.76" y="139.6" width="21.74" height="20.68" fill="#FF9A03"/></g></g></g></g><g><path d="M942.03 184.78 942.03 180.86 935.1 180.87 935.09 168.51 926.06 168.52 926.05 155.89C926.27 155.77 926.48 155.62 926.68 155.47 927.89 154.56 929.04 153.59 930.13 152.56 931.21 151.53 932.23 150.45 933.18 149.32 934.38 147.89 935.45 146.38 936.42 144.81 942.61 142.69 947.41 137.82 949.23 131.63L951.27 124.69C951.68 123.31 951.39 121.86 950.49 120.71 949.59 119.56 948.21 118.91 946.72 118.91L942.04 118.91 942.04 114.92 942.04 114.92 942.04 114.92 942.03 114.92 939.66 114.92 939.66 114.92 900.94 114.95 900.94 118.94 896.26 118.94C894.77 118.94 893.39 119.6 892.5 120.75 891.6 121.9 891.32 123.35 891.73 124.73L893.78 131.67C895.61 137.86 900.42 142.72 906.61 144.83 909.02 148.72 912.15 152.21 915.92 155.11L915.92 155.11C916.07 155.23 916.21 155.35 916.37 155.46 916.58 155.61 916.79 155.76 917.01 155.88L917.01 155.89 917.02 168.52 907.98 168.53 907.99 180.89 901.06 180.9 901.06 184.56 886.08 184.48 886.08 192.47 991.15 192.47 991.15 185.05 942.03 184.78ZM946.71 122.37C947.19 122.37 947.48 122.64 947.6 122.8 947.72 122.96 947.92 123.29 947.78 123.74L945.74 130.68C944.65 134.39 942.26 137.52 939.08 139.62 939.87 137.75 940.51 135.82 940.99 133.85 941.33 132.44 941.59 131 941.76 129.55 941.93 128.1 942.02 126.63 942.02 125.15L942.02 122.38 946.71 122.37ZM897.23 130.72 895.18 123.78C895.05 123.33 895.24 123 895.36 122.84 895.49 122.68 895.77 122.41 896.25 122.41L900.93 122.41 900.93 125.18C900.93 130.21 901.97 135.12 903.9 139.66 900.72 137.55 898.33 134.43 897.23 130.72Z" fill="#DFD1C1"/><g><g><g><g><path d="M925.98 142.6 925.21 139.21 931.44 137.9C937.53 136.62 942.36 132.24 944.05 126.47L946.09 119.53C946.22 119.08 946.03 118.75 945.91 118.59 945.78 118.43 945.5 118.16 945.02 118.16L933.71 118.17 933.71 114.7 945.02 114.69C946.51 114.69 947.89 115.35 948.79 116.49 949.69 117.64 949.98 119.09 949.57 120.47L947.53 127.41C945.47 134.42 939.61 139.73 932.22 141.28L925.98 142.6Z" fill="#FFB100"/></g><g><path d="M913.65 142.61 907.42 141.31C900.03 139.77 894.15 134.47 892.08 127.46L890.03 120.52C889.62 119.14 889.9 117.69 890.8 116.54 891.7 115.39 893.07 114.73 894.56 114.73L905.87 114.72 905.87 118.19 894.56 118.2C894.08 118.2 893.79 118.47 893.67 118.63 893.54 118.79 893.36 119.12 893.49 119.57L895.54 126.51C897.24 132.28 902.09 136.65 908.17 137.91L914.41 139.21 913.65 142.61Z" fill="#FFB100"/></g><g><path d="M940.33 110.71 940.34 120.93C940.35 132.77 934.69 143.96 924.98 151.25 924.78 151.4 924.56 151.55 924.35 151.67 921.6 153.37 918.06 153.38 915.3 151.69L915.3 151.68C915.08 151.56 914.87 151.41 914.66 151.26 909.8 147.62 905.95 143.02 903.31 137.83 900.67 132.65 899.25 126.89 899.24 120.97L899.23 110.75 940.33 110.71Z" fill="#FFB100"/></g><g><path d="M937.96 110.71 937.96 112.89C937.97 126.95 931.25 140.24 919.72 148.9 919.48 149.08 919.22 149.26 918.97 149.4 917.52 150.3 915.88 150.8 914.22 150.9 914.37 151.02 914.51 151.14 914.67 151.25 914.88 151.4 915.09 151.55 915.31 151.67L915.31 151.68C918.07 153.37 921.61 153.37 924.36 151.66 924.58 151.53 924.79 151.39 924.99 151.24 934.69 143.95 940.36 132.76 940.35 120.92L940.34 110.7 937.96 110.71Z" fill="#FD9619"/></g><g><path d="M933.4 164.3 933.41 180.44 906.29 180.46 906.28 164.32 915.32 164.32 924.36 164.31Z" fill="#FFB100"/></g><g><path d="M940.34 176.66 940.34 181.02 899.36 181.06 899.36 176.69 913.02 176.68 926.69 176.67Z" fill="#FD9619"/></g><g><path d="M939.92 177.2 939.92 178.18 899.78 178.22 899.78 177.23 913.16 177.22 926.55 177.21Z" fill="#FFB100"/></g><g><path d="M924.35 151.68 924.36 164.31 915.31 164.32 915.3 151.69C918.06 153.38 921.6 153.38 924.35 151.68Z" fill="#FD9619"/></g><rect x="916.48" y="153.43" width="3" height="10.27" fill="#FFB100"/><rect x="900.8" y="112.52" width="37.98" height="1.31" fill="#FD9619"/><g><path d="M929.47 173.52 929.47 173 910.76 173 910.76 167.98 928.92 167.98 928.92 173.52 929.47 173.52 929.47 173 929.47 173.52 930.01 173.52 930.01 166.93 909.68 166.93 909.68 174.04 930.01 174.04 930.01 173.52Z" fill="#FD9619"/></g></g><path d="M884.38 188.26 884.38 180.27 989.45 180.84 989.45 188.26Z" fill="#8F4C28"/></g></g></g></g></g></g></g></svg>