<svg width="2000.14" height="3223.82" viewBox="0 0 2000.14 3223.82" xmlns="http://www.w3.org/2000/svg" xmlns:xlink="http://www.w3.org/1999/xlink" xml:space="preserve" overflow="visible"><defs></defs><g><g><path d="M338.24 663.48C426.52 652.62 509.44 738.7 523.37 855.1 537.27 971.49 518.98 1070.2 430.68 1080.78 342.36 1091.34 226.17 1014 196.48 892.98 168.58 779.23 217.58 678.33 338.24 663.48Z" fill="#FFC19F"/><path d="M306.41 938.59C323.82 986.95 372.51 1013.71 415.17 998.37 457.81 983.02 478.27 931.38 460.86 883.01 443.45 834.65 394.77 807.89 352.14 823.23 309.48 838.57 289.02 890.23 306.41 938.59Z" fill="#E0956C"/><path d="M1372.62 663.48C1284.34 652.62 1201.42 738.7 1187.49 855.1 1173.59 971.49 1191.88 1070.2 1280.19 1080.78 1368.5 1091.34 1484.69 1014 1514.39 892.98 1542.29 779.23 1493.29 678.33 1372.62 663.48Z" fill="#FFC19F"/><path d="M1404.46 938.59C1387.05 986.95 1338.36 1013.71 1295.7 998.37 1253.06 983.02 1232.6 931.38 1250.01 883.01 1267.41 834.65 1316.1 807.89 1358.73 823.23 1401.39 838.57 1421.85 890.23 1404.46 938.59Z" fill="#E0956C"/><path d="M259.38 444.39C222.36 854.18 520.24 1119.55 858.25 1112.98 1196.26 1106.4 1468.86 803.1 1426.86 405.56 1403.54 184.84 1174.46-8.14 851.58 0.26 513.63 9.05 285.71 152.96 259.38 444.39Z" fill="#282828"/><path d="M1335.92 386.9C1262.53 182.98 1085.65 180.07 854.07 180.07 622.49 180.07 445.61 182.98 372.22 386.9 350.09 448.4 369.14 955.63 432.52 1069.35 486.09 1165.43 691.82 1259.87 835.29 1259.87 841.27 1259.87 866.86 1259.87 872.84 1259.87 1016.31 1259.87 1222.05 1165.43 1275.61 1069.35 1339 955.63 1358.05 448.4 1335.92 386.9Z" fill="#FFC19F"/><path d="M438.51 944.43C437.11 968.14 468.92 989.32 509.57 991.72 550.21 994.13 584.31 976.86 585.72 953.15 587.12 929.44 555.31 908.26 514.67 905.86 474.01 903.45 439.92 920.72 438.51 944.43Z" fill="#FF9797"/><path d="M1115.89 955.19C1117.81 978.87 1152.27 995.39 1192.85 992.11 1233.43 988.82 1264.78 966.97 1262.87 943.29 1260.95 919.62 1226.49 903.09 1185.91 906.37 1145.32 909.66 1113.97 931.51 1115.89 955.19Z" fill="#FF9797"/><g><path d="M1050.68 972.47C1042.89 931.87 980.5 942.39 878.59 941.71 873.26 941.68 852.53 941.68 847.19 941.71 745.28 942.4 682.89 931.88 675.1 972.47 660.1 1050.67 758.49 1136.08 861.99 1136.39L863.78 1136.39C967.28 1136.08 1065.67 1050.67 1050.68 972.47Z" fill="#701608"/><path d="M863.77 1138.03 861.98 1138.03C828.41 1137.9 793.61 1128.38 761.22 1110.58L759.24 1109.53 760.9 1108.05C787.79 1083.94 824.02 1070.65 862.9 1070.65 901.72 1070.65 937.95 1083.94 964.9 1108.05L966.56 1109.53 964.58 1110.58C932.14 1128.38 897.28 1137.9 863.77 1138.03Z" fill="#DD6B5B"/><path d="M862.9 993.86C791.69 993.86 732.4 971.79 724.98 942.49L724.55 940.7 1001.26 940.7 1000.83 942.49C993.34 971.79 934.06 993.86 862.9 993.86Z" fill="#FFFFFF"/></g><path d="M810.59 892.04C813.21 891.99 815.48 890.06 815.88 887.38 818.65 868.34 833.41 855.79 853.48 855.4 873.66 855.01 889.26 867.21 892.28 885.78 892.77 888.75 895.59 890.77 898.55 890.29 901.53 889.81 903.54 887 903.06 884.02 899.18 860.25 878.7 843.99 853.27 844.49 827.97 844.98 808.6 861.58 805.06 885.81 804.63 888.8 806.69 891.57 809.67 892.01L810.59 892.04Z" fill="#C4735B"/><path d="M167.15 648.3C237.37 623.43 281.17 578.07 285.18 463.61 244.65 454.93 225.37 443.07 186.28 430.09 338.08 391.69 315.76 174.94 513.94 84.32 838.81-38.57 1135.03 51.76 1220.37 101.41 1377.63 192.9 1397.01 316.19 1408.36 454.4 1430.08 579.58 1457.99 616.65 1523.44 645.13 1453.05 665.52 1411.4 647.24 1387.55 622.92 1394.53 701.72 1431.15 726.67 1471.64 761.57 1361.76 767.16 1300.58 675.39 1280.8 596.11 1258.83 508.07 1293.15 411.05 1279.27 376.56 1271.24 356.6 1198.89 241.33 1168.55 240.45 1102.42 238.54 1029.81 468.32 795.71 464.59 890.2 413.72 941.76 341.74 993.77 239.13 975.41 250.07 957.01 263.37 938.76 279.52 746.65 449.69 541.22 474.12 376.11 459.9 403.41 594.05 443.47 734.65 234.82 798.76 253.76 775.34 281.39 704.99 285.44 649.39 263.08 663.2 222.14 675.33 167.15 648.3Z" fill="#282828"/><path d="M472.22 553.86C467.52 553.91 462.82 552.04 459.42 548.29 453.05 541.31 453.54 530.5 460.51 524.13 511.25 477.84 603.1 464.13 678.9 491.45 687.8 494.68 692.4 504.48 689.19 513.36 685.96 522.28 676.14 526.88 667.28 523.66 603.76 500.67 524.78 511.74 483.58 549.4 480.36 552.33 476.3 553.82 472.22 553.86Z" fill="#4C0B00"/><path d="M1231.14 553.86C1235.84 553.91 1240.53 552.04 1243.94 548.29 1250.31 541.31 1249.82 530.5 1242.84 524.13 1192.11 477.84 1100.26 464.13 1024.46 491.45 1015.56 494.68 1010.96 504.48 1014.17 513.36 1017.4 522.28 1027.22 526.88 1036.08 523.66 1099.6 500.67 1178.58 511.74 1219.78 549.4 1223 552.33 1227.06 553.82 1231.14 553.86Z" fill="#4C0B00"/><g><path d="M977.21 854.85C977.21 854.85 1140.23 906.85 1202.3 820.98 1277.93 716.35 1162.05 633.79 1086.94 649.95 1017.44 664.9 954.33 725.18 977.21 854.85Z" fill="#F9FEFF"/><path d="M1214.5 687.48C1184.28 649.5 1143.67 637.56 1099.63 641.98 1054.6 646.5 1009.01 678.45 996.14 711.4 1020.33 674.28 1062.08 660.68 1088.06 655.1 1129.44 646.15 1183.71 664.72 1208.14 702.11 1229.86 735.38 1228.04 785.29 1200.28 823.69 1233.07 797.58 1245.99 727.06 1214.5 687.48Z" fill="#773220"/><path d="M1014.26 745.29C999.31 782.89 1017.67 825.48 1055.27 840.44 1092.87 855.39 1135.46 837.03 1150.42 799.43 1165.37 761.83 1147.01 719.24 1109.41 704.28 1071.81 689.33 1029.21 707.69 1014.26 745.29Z" fill="#63190D"/><path d="M1020.19 733.64C1016.04 744.07 1021.13 755.89 1031.57 760.04 1042 764.18 1053.82 759.09 1057.97 748.66 1062.11 738.23 1057.02 726.41 1046.59 722.27 1036.15 718.12 1024.33 723.21 1020.19 733.64Z" fill="#FEFFFE"/></g><g><path d="M731.01 855.63C731.01 855.63 568.02 907.74 505.9 821.92 430.19 717.34 546.01 634.7 621.13 650.81 690.65 665.72 753.8 725.95 731.01 855.63Z" fill="#F9FEFF"/><path d="M493.6 688.42C523.79 650.42 564.39 638.45 608.44 642.84 653.47 647.33 699.08 679.25 711.98 712.19 687.76 675.08 646.01 661.52 620.02 655.95 578.64 647.03 524.38 665.63 499.97 703.04 478.27 736.32 480.14 786.24 507.92 824.62 475.12 798.54 462.15 728.03 493.6 688.42Z" fill="#773220"/><path d="M561.3 746.99C546.35 784.59 564.71 827.18 602.3 842.13 639.9 857.08 682.5 838.72 697.45 801.12 712.4 763.52 694.04 720.93 656.44 705.98 618.85 691.02 576.25 709.38 561.3 746.99Z" fill="#63190D"/><path d="M567.22 735.33C563.07 745.76 568.17 757.58 578.6 761.73 589.03 765.88 600.85 760.78 605 750.35 609.15 739.92 604.05 728.1 593.62 723.95 583.19 719.81 571.37 724.9 567.22 735.33Z" fill="#FEFFFE"/></g></g><path d="M1735.48 1032.88C1716 1020.32 1657.4 976.47 1677.48 869.58 1684.92 830 1657.83 815.56 1633.92 802.8 1601.32 785.4 1573.15 770.38 1606.01 700.61 1647.12 613.38 1626.92 536.88 1553.34 500.94 1496.3 473.11 1436.39 418.43 1386.92 350.75 1368.25 312.05 1353.4 274.9 1343.17 247.44 1023.72 181.51 485.24 316.92 320.98 380.14L300.66 353.92C289.95 433.02 220.78 490.48 178 542.76 126.16 606.1 103.3 673.14 135.77 744.47 148.62 772.77 158.55 797.93 149.63 819.38 142.08 837.52 120.68 852.95 84.2 866.5 48.08 879.92 25.96 897.35 16.65 919.77 3.48 951.38 18.8 985.08 32.29 1014.79 41.8 1035.75 40.26 1067.36 34.53 1083.58 13.39 1143.44-7.72 1165.18 2.79 1207.6-0.01 1162.75 25.41 1139.39 44.59 1089.45 51.75 1070.8 55.31 1040.31 37.56 1001.55 24.95 974.01 16.18 951.19 27.39 924.25 35.41 904.97 55.31 889.66 88.27 877.41 128.47 862.46 151.39 845.44 160.39 823.84 163.78 815.67 164.41 807.11 164.01 798.4 182.95 840.72 182.61 875.3 106.17 909.06-34.33 971.12 102.26 1066.63 81.46 1108.17 45.75 1179.48 35.46 1193.29 41.09 1249.01 47.54 1312.86 92.77 1350.71 137.89 1363.56 138.5 1353.52 93.05 1294.88 131.77 1198.02 140.13 1251.4 191.98 1376.96 206.58 1380.22 439.49 1432.12 1135.36 1495.25 1388.15 1378.27 1436.45 1355.93 1427.4 1247.77 1440.76 1218.09 1450.43 1196.6 1494.34 1383.26 1510.75 1366.01 1732.78 1132.62 1683.64 1059.61 1656.97 1056.66 1619.85 1052.55 1596.2 1055.51 1636.89 886.77 1656.62 804.93 1504.38 847.02 1565.88 716.4 1602.75 638.1 1586.63 571.34 1515.91 524.46 1491.13 508.03 1468.52 482.96 1447.87 454.54 1480.67 479.67 1513.99 500.77 1545.55 516.16 1613.8 549.47 1634.14 613.61 1595.5 695.66 1557.92 775.47 1597.01 796.33 1628.43 813.1 1652.73 826.06 1672.16 836.34 1666.06 867.45 1642.66 986.65 1724.08 1029.25 1735.48 1032.88ZM140.44 723.79C120.27 665.24 137.17 611.17 182.45 555.82 207.91 524.71 247.37 499 278.33 466.88 236.86 571.77 141.91 643.77 140.44 723.79Z" fill="#282828"/><path d="M253.71 3171.87C253.71 3200.56 526.82 3223.82 863.72 3223.82 1200.62 3223.82 1473.73 3200.56 1473.73 3171.87 1473.73 3143.18 1200.62 3119.92 863.72 3119.92 526.82 3119.92 253.71 3143.18 253.71 3171.87Z" opacity="0.11"/><path d="M756.62 3046.44C756.11 3051.92 594.5 3042.53 594.26 3035.87 592.12 2977.89 577.93 2214.27 577.32 2180.66L831.76 2260.1C824.81 2317.47 760.34 3006.85 756.62 3046.44Z" fill="#FFC19F"/><path d="M953.46 3046.44C953.97 3051.92 1115.58 3042.53 1115.82 3035.87 1117.96 2977.89 1132.15 2214.27 1132.76 2180.66L878.32 2260.1C885.27 2317.47 949.74 3006.85 953.46 3046.44Z" fill="#FFC19F"/><path d="M278.26 2243.55C497.04 2396.32 1132.76 2592.72 1463.98 2177.09 1463.98 2177.09 1340.67 2018.89 1229.32 1895.01 1090.35 1881.75 630.57 1884.93 481.04 1900.35 399.24 2009.15 322.62 2134.29 278.26 2243.55Z" fill="#11758C"/><path d="M1678.29 1149.74C1692.7 1140.99 1617.23 1023.85 1602.26 1031.72 1378.49 1149.33 1090.08 1280.21 1028.7 1303.08L1122.02 1460C1249.75 1389.78 1487.96 1265.35 1678.29 1149.74Z" fill="#FFC19F"/><path d="M1197.36 1219.49C1224.85 1273.75 1241.84 1392.83 1244.51 1470.29 1198.39 1493.41 1166.63 1509.86 1156.85 1508.84 1055.07 1498.28 990.72 1297.56 982.82 1286.94 1028.7 1275.19 1096.43 1253.66 1197.36 1219.49Z" fill="#28AFC6"/><path d="M651.99 1434.47 459.12 1350.26 342.11 1602.12 510.77 1678.57Z" fill="#FFC19F"/><path d="M459.12 2042.66C695.25 2124.93 1050.27 2135.25 1250.96 2033.36 1250.96 2033.36 1156.35 1433.65 1126.75 1286.25 986.13 1267.67 710.14 1262.81 563.87 1287.7 542.67 1475.75 501.95 1775.33 459.12 2042.66Z" fill="#28AFC6"/><path d="M1028.23 1304.22C1028.66 1294.7 1027.05 1285.53 1024.77 1276.5 927.02 1269.9 780.19 1267.78 675.49 1276.12 674.69 1280.23 672.94 1284.06 672.75 1288.33 669.46 1361.97 746.37 1425.21 844.53 1429.59 942.69 1433.99 1024.94 1377.86 1028.23 1304.22Z" fill="#FFC19F"/><path d="M976.1 1100.21 973.84 1308.18C973.35 1352.9 916.12 1388.54 846.01 1387.78 775.9 1387.02 719.45 1350.14 719.94 1305.42L722.2 1097.45 976.1 1100.21Z" fill="#FFC19F"/><path d="M1032.24 1185.14C1032.65 1175.99 1031.11 1167.17 1028.91 1158.5 934.97 1152.16 793.88 1150.12 693.26 1158.14 692.49 1162.08 690.81 1165.77 690.63 1169.87 687.47 1240.63 761.37 1301.41 855.71 1305.62 950.04 1309.84 1029.08 1255.9 1032.24 1185.14Z" fill="#601805" opacity="0.19"/><g><path d="M1499.98 896.2C1467.07 1015.11 1349.84 1088.28 1262.75 1075.26 1175.66 1062.23 1160.42 964.01 1177.56 849.22 1194.73 734.43 1279.3 651.64 1366.35 664.96 1485.33 683.16 1530.89 784.44 1499.98 896.2Z" fill="#FFC19F"/><path d="M1394.6 920.43C1387.06 970.76 1344.97 1006.18 1300.58 999.55 1256.21 992.91 1226.33 946.72 1233.87 896.39 1241.39 846.06 1283.48 810.65 1327.85 817.28 1372.24 823.91 1402.11 870.09 1394.6 920.43Z" fill="#E0956C"/><path d="M205.77 883.38C236.3 1002.92 352.07 1078.39 439.41 1067.1 526.75 1055.8 543.92 957.9 529.05 842.79 514.16 727.69 431.25 643.24 343.94 654.82 224.62 670.68 177.07 771.03 205.77 883.38Z" fill="#FFC19F"/><path d="M317.06 909.76C323.59 960.22 364.96 996.47 409.47 990.72 453.98 984.96 484.77 939.38 478.24 888.91 471.71 838.44 430.34 802.2 385.83 807.95 341.33 813.7 310.54 859.28 317.06 909.76Z" fill="#E0956C"/><path d="M285.15 421.45C237.73 810.03 518.61 1070.69 846 1073.94 1173.4 1077.18 1445.86 796.46 1416.43 417.33 1400.09 206.82 1181.21 39.57 868.41 38.49 541 37.35 318.87 145.11 285.15 421.45Z" fill="#282828"/><path d="M386.08 343.11C355.8 408.46 369.7 987.59 435.79 1068.95 505.9 1155.26 793.31 1240.06 853.88 1240.65 918.77 1241.3 1201.85 1170.62 1257.64 1077.09 1323.66 966.39 1357.64 451.66 1337.53 390.15 1269.57 182.39 1089.5 173.62 853.89 171.29 633.48 169.12 464.62 173.55 386.08 343.11Z" fill="#FFC19F"/><path d="M443.46 917.19C441.38 940.61 472.25 962.49 512.41 966.06 552.56 969.63 586.81 953.53 588.89 930.1 590.97 906.68 560.09 884.79 519.94 881.23 479.77 877.67 445.53 893.77 443.46 917.19Z" fill="#FF9797"/><path d="M1113.65 943.4C1114.86 966.89 1148.48 984.24 1188.75 982.17 1229 980.1 1260.67 959.37 1259.46 935.89 1258.25 912.41 1224.62 895.05 1184.37 897.12 1144.1 899.19 1112.44 919.92 1113.65 943.4Z" fill="#FF9797"/><path d="M814.38 870.33C816.98 870.36 819.29 868.51 819.76 865.86 823.06 847.1 838.03 835.11 857.91 835.31 877.9 835.51 892.97 848.04 895.43 866.49 895.83 869.45 898.56 871.54 901.5 871.14 904.46 870.75 906.54 868.03 906.15 865.06 903 841.43 883.21 824.74 858.02 824.49 832.97 824.24 813.32 840.12 809.11 863.98 808.6 866.93 810.57 869.73 813.5 870.25L814.38 870.33Z" fill="#C4735B"/><path d="M481.44 537.41C485.08 537.26 488.68 535.81 491.48 533.09 527.33 498.34 597.63 486.21 655.11 504.99 663.08 507.64 671.76 503.26 674.42 495.18 677.05 487.15 672.67 478.51 664.61 475.86 596.03 453.5 514.21 468.31 470.14 511.12 464.08 517.02 463.93 526.7 469.83 532.77 472.98 536.03 477.23 537.58 481.44 537.41Z" fill="#282828"/><path d="M1223.66 548.52C1227.87 548.69 1232.12 547.13 1235.26 543.87 1241.14 537.79 1240.99 528.11 1234.92 522.22 1190.75 479.47 1108.93 464.8 1040.4 487.24 1032.35 489.9 1027.98 498.55 1030.62 506.57 1033.28 514.63 1041.94 519.01 1049.95 516.35 1107.38 497.46 1177.75 509.43 1213.62 544.2 1216.42 546.94 1220.01 548.37 1223.66 548.52Z" fill="#282828"/><path d="M1247.74 220.01C1162.97 172.63 1003.53 145.6 860.12 141.6 704.21 137.25 543.01 154.49 456.19 207.72 398.76 242.92 324.95 515.34 352.73 493.53 384.52 468.59 434.76 446.9 495.02 429.5 503.03 399.47 546.23 325.18 554.59 315.39 551.22 331.27 545.13 387.33 542.2 417.21 617.35 399.62 703.19 388.2 786.83 384.59 785.66 352.73 802.18 311.66 802.29 309.49 811.79 319.23 830.44 364.2 838.43 383.34 851.01 383.3 863.46 383.44 875.76 383.78 988.5 386.93 1071.75 396.29 1137.97 410.87 1136.04 312.44 1136.1 281.69 1135.35 288.38 1147.03 309.49 1161.33 369.95 1161.62 416.46 1186.37 422.77 1208.66 429.89 1229.25 437.76 1231.87 409.18 1239.14 363.04 1240.19 355.21 1248.87 360.71 1264.31 424.34 1269.55 455.02 1303.83 471.34 1334.22 490.05 1365.5 510.8 1399.64 533.48 1316.06 258.21 1247.74 220.01Z" fill="#282828"/><g><path d="M975.6 844.52C975.6 844.52 1137.84 901.56 1202.73 817.13 1281.79 714.26 1167.82 627.89 1091.89 641.91 1021.62 654.89 956.44 713.58 975.6 844.52Z" fill="#F9FEFF"/><path d="M1218.92 683.38C1189.69 644.34 1149.24 631.14 1104.86 634.28 1059.5 637.5 1012.76 668.25 998.85 700.98 1024.24 664.4 1066.58 651.97 1092.85 647.13 1134.68 639.36 1188.66 659.61 1212.09 697.89 1232.93 731.95 1229.63 782.04 1200.61 819.8 1234.32 794.53 1249.39 724.06 1218.92 683.38Z" fill="#773220"/><path d="M1016.06 735.55C999.93 772.88 1017.12 816.21 1054.45 832.34 1091.78 848.47 1135.11 831.28 1151.24 793.95 1167.37 756.62 1150.18 713.29 1112.85 697.16 1075.51 681.03 1032.18 698.22 1016.06 735.55Z" fill="#63190D"/><path d="M1022.35 724.02C1017.88 734.38 1022.64 746.4 1033 750.88 1043.36 755.35 1055.38 750.58 1059.86 740.23 1064.33 729.87 1059.57 717.85 1049.21 713.37 1038.85 708.89 1026.82 713.66 1022.35 724.02Z" fill="#FEFFFE"/></g><g><path d="M728.25 838.05C728.25 838.05 562.98 885.59 503.09 797.54 430.12 690.26 548.91 610.65 623.9 629.04 693.3 646.07 754.96 708.44 728.25 838.05Z" fill="#F9FEFF"/><path d="M494.68 663.07C526.13 625.79 567.27 614.96 611.4 620.66 656.5 626.49 701.38 659.91 713.37 693.39 690.14 655.4 648.59 640.54 622.65 634.18 581.34 624 526.28 641.09 500.67 677.95 477.89 710.75 478.29 760.95 505.07 800.32 472.86 773.15 461.9 701.92 494.68 663.07Z" fill="#773220"/><path d="M560.96 723.89C544.83 761.22 562.02 804.55 599.35 820.68 636.68 836.81 680.01 819.62 696.14 782.29 712.27 744.96 695.08 701.63 657.75 685.5 620.42 669.38 577.09 686.56 560.96 723.89Z" fill="#63190D"/><path d="M567.26 712.36C562.79 722.72 567.55 734.74 577.91 739.22 588.26 743.69 600.29 738.92 604.76 728.57 609.23 718.21 604.47 706.19 594.11 701.71 583.75 697.24 571.73 702.01 567.26 712.36Z" fill="#FEFFFE"/></g><g><path d="M1039.41 947.5C1051.81 1020.98 933.74 1115.81 830.48 1105.79 727.78 1095.82 661.9 1006.05 666.28 931.99 674.98 891.71 741.76 906.06 843.32 908.36 944.76 910.66 1031.86 902.79 1039.41 947.5Z" fill="#701608"/><path d="M844.5 1039.33C796.83 1037.94 759.93 1048.22 735.59 1069.44 761.82 1088.28 797.54 1106.5 837.35 1107.5 882.16 1108.62 921.75 1102.67 951.8 1074.02 940.76 1052.46 887.15 1040.57 844.5 1039.33Z" fill="#DD6B5B"/><path d="M989.35 913.78C954.57 902.3 899.7 907.86 849.14 906.72 792.09 905.42 750.45 897.24 714.59 904.1 727.32 934.94 774.56 955.87 840.2 958.12 915.99 960.72 978.26 946.18 989.35 913.78Z" fill="#FFFFFF"/></g><g><path d="M176.91 401.05C176.91 401.05 132.74 479.17 182.79 485.83 232.84 492.5 278.33 460.94 284.4 415.36 290.47 369.78 254.81 327.43 204.76 320.77 154.71 314.11 176.91 401.05 176.91 401.05Z" fill="#F9951E"/><path d="M445.65 436.81C445.65 436.81 467.85 523.76 417.8 517.1 367.75 510.44 332.09 468.09 338.16 422.51 344.22 376.93 389.72 345.37 439.77 352.03 489.83 358.7 445.65 436.81 445.65 436.81Z" fill="#F9951E"/><path d="M344.29 424.5C341.41 446.16 323.62 461.66 304.56 459.13 285.5 456.59 272.39 436.98 275.27 415.32 278.16 393.66 295.94 378.16 315 380.69 334.06 383.22 347.18 402.84 344.29 424.5Z" fill="#F9951E"/></g></g><path d="M691.96 1905.43C702.03 1908.46 750.1 1782.77 740.33 1778.86 594.4 1720.39 389.48 1609.13 351.08 1585.94 351.08 1585.94 282.99 1687.09 327.81 1762.41 363.49 1822.39 558.92 1865.37 691.96 1905.43Z" fill="#FFC19F"/><path d="M360.03 1451.97C406.43 1493.69 595.91 1610.01 602.95 1604.28 653.05 1491.38 642.23 1283.42 642.85 1277.27 557.96 1283.73 517.41 1292.97 493.69 1302.69 448.31 1350.69 405.62 1396.96 360.03 1451.97Z" fill="#28AFC6"/><path d="M904.74 1797.05C910.58 1791.97 913.09 1729.25 841.84 1698.8 804.73 1682.94 735.13 1703.83 672.73 1770.1 667.01 1776.18 684.74 1779.53 695.96 1784.72 707.17 1789.91 869.44 1833.36 853.42 1821.36 837.63 1809.53 801.27 1799.9 831.49 1783.06 867.61 1762.93 889.67 1810.15 904.74 1797.05Z" fill="#FFC19F"/><g><path d="M1230.19 1895.66C1230.19 1895.66 1371.91 2000.99 1463.98 2103.43 1413.04 2135.22 1312.28 2164 1243.23 2133.53 1269.3 2423.55 1010.24 2348.59 907.6 2229.66 878.21 2330.33 642.03 2433.32 580.12 2174.26 461.18 2276.91 268.01 2199.59 278.7 2123.75 284.64 2081.64 417.87 1947.82 482 1895.65 482 1895.65 602.32 1988.15 875.02 1977.11 1041.11 1970.41 1230.19 1895.66 1230.19 1895.66Z" fill="#28AFC6"/><g><path d="M1109.42 2248.33C1104.04 2253.32 1103.73 2261.71 1108.72 2267.09 1113.7 2272.46 1122.1 2272.78 1127.47 2267.79 1132.85 2262.81 1133.16 2254.41 1128.18 2249.03 1123.2 2243.66 1114.8 2243.34 1109.42 2248.33Z" fill="#EEFAFF"/><path d="M1058.1 2220.55C1052.72 2225.54 1052.41 2233.93 1057.39 2239.31 1062.38 2244.69 1070.78 2245 1076.15 2240.01 1081.53 2235.03 1081.84 2226.63 1076.86 2221.26 1071.87 2215.88 1063.47 2215.56 1058.1 2220.55Z" fill="#EEFAFF"/><path d="M1121.17 2195.12C1115.79 2200.11 1115.48 2208.5 1120.47 2213.88 1125.45 2219.26 1133.85 2219.57 1139.22 2214.59 1144.6 2209.6 1144.91 2201.2 1139.93 2195.83 1134.95 2190.45 1126.55 2190.14 1121.17 2195.12Z" fill="#EEFAFF"/></g><g><path d="M1385.97 2059.88C1381.88 2065.96 1383.49 2074.21 1389.56 2078.31 1395.64 2082.4 1403.89 2080.8 1407.99 2074.72 1412.08 2068.64 1410.47 2060.39 1404.4 2056.29 1398.31 2052.19 1390.07 2053.8 1385.97 2059.88Z" fill="#EEFAFF"/><path d="M1329.66 2044.52C1325.56 2050.6 1327.17 2058.85 1333.25 2062.95 1339.33 2067.04 1347.58 2065.43 1351.67 2059.36 1355.77 2053.28 1354.16 2045.03 1348.09 2040.93 1342.01 2036.84 1333.76 2038.45 1329.66 2044.52Z" fill="#EEFAFF"/></g><g><path d="M733.33 2233.62C726.02 2233.09 719.66 2238.59 719.13 2245.9 718.6 2253.21 724.1 2259.57 731.41 2260.1 738.72 2260.63 745.08 2255.13 745.61 2247.82 746.14 2240.5 740.65 2234.14 733.33 2233.62Z" fill="#EEFAFF"/><path d="M718.63 2177.13C711.32 2176.6 704.96 2182.1 704.43 2189.41 703.9 2196.72 709.4 2203.07 716.71 2203.61 724.02 2204.14 730.38 2198.63 730.91 2191.33 731.44 2184.02 725.94 2177.66 718.63 2177.13Z" fill="#EEFAFF"/><path d="M780.26 2205.91C772.95 2205.38 766.59 2210.88 766.06 2218.19 765.53 2225.5 771.03 2231.86 778.34 2232.39 785.65 2232.92 792 2227.42 792.53 2220.11 793.07 2212.8 787.56 2206.44 780.26 2205.91Z" fill="#EEFAFF"/></g><g><path d="M391.54 2124.81C384.53 2122.66 377.1 2126.6 374.95 2133.6 372.8 2140.61 376.74 2148.04 383.74 2150.19 390.75 2152.34 398.18 2148.4 400.33 2141.39 402.47 2134.39 398.54 2126.96 391.54 2124.81Z" fill="#EEFAFF"/><path d="M389.86 2075C382.86 2072.85 375.43 2076.78 373.27 2083.79 371.12 2090.8 375.06 2098.22 382.06 2100.38 389.07 2102.53 396.5 2098.6 398.65 2091.59 400.8 2084.58 396.87 2077.16 389.86 2075Z" fill="#EEFAFF"/><path d="M446.66 2108.33C439.65 2106.18 432.22 2110.11 430.07 2117.12 427.92 2124.12 431.86 2131.55 438.86 2133.71 445.87 2135.86 453.3 2131.92 455.45 2124.92 457.6 2117.9 453.67 2110.48 446.66 2108.33Z" fill="#EEFAFF"/></g></g><g><path d="M784.48 2127.3C798.48 2128.25 810.62 2119.62 812 2107.74L836.48 1895.8 764.08 1890.91 759.85 2104.22C759.72 2111.06 763.23 2117.34 768.89 2121.62 773.1 2124.82 778.51 2126.9 784.48 2127.3Z" fill="#301919"/><path d="M787.39 2096.63C816.62 2098.6 842.18 2077.56 845.3 2048.94L901.01 1538.15 749.86 1527.94 736.41 2041.58C735.98 2058.08 743.18 2073.1 754.93 2083.29 763.67 2090.88 774.91 2095.78 787.39 2096.63Z" fill="#352323"/><path d="M667.63 1463.06C660.94 1562.06 725.35 1646.95 811.48 1652.76 897.6 1658.57 972.83 1583.11 979.52 1484.11 986.2 1385.11 921.8 1300.08 835.68 1294.26 749.55 1288.45 674.31 1364.05 667.63 1463.06Z" fill="#A8A0A0"/><path d="M705.59 1593.82C717.19 1596.27 729.81 1598.53 743.13 1600.51 756 1624.82 773.13 1642.4 792.95 1650.11 799.01 1651.36 805.16 1652.33 811.49 1652.76 817.8 1653.19 824.03 1653.05 830.21 1652.62 850.88 1647.64 870.22 1632.52 886.24 1610.17 899.71 1610 912.51 1609.46 924.34 1608.58 925.41 1607.52 926.44 1606.39 927.49 1605.29 915.84 1606.24 902.83 1606.87 888.52 1607.08 897.96 1593.23 906.07 1576.75 912.58 1558.43 931.65 1557.55 948.71 1555.86 962.4 1553.33 962.9 1552.2 963.31 1551.01 963.8 1549.87 950.8 1552.39 934.02 1554.32 913.69 1555.3 917.53 1544.05 920.76 1532.14 923.24 1519.65 944.13 1518.39 962.15 1516.08 975.4 1512.71 975.63 1511.64 975.85 1510.55 976.06 1509.47 963.78 1512.7 946.03 1515.21 923.9 1516.57 926.07 1504.98 927.62 1492.95 928.45 1480.57 928.71 1476.8 928.76 1473.09 928.88 1469.37 950.94 1473.95 968.12 1478.97 979.55 1484.1 979.62 1483.03 979.58 1481.93 979.63 1480.87 967.28 1475.47 949.66 1470.52 929 1466.27 929.39 1448.16 928.2 1430.71 925.61 1414.27 948.02 1423.1 966.26 1434.14 978.64 1446.42 978.46 1444.84 978.14 1443.32 977.92 1441.76 965.06 1429.91 947 1419.3 925.12 1410.79 921.52 1389.75 915.58 1370.58 907.82 1353.98 931.9 1365.43 952.27 1381.29 967.42 1399.98 966.19 1396.71 964.81 1393.54 963.42 1390.36 947.99 1373.74 928.35 1359.7 905.69 1349.46 892.61 1323.47 874.74 1304.77 853.97 1296.83 848 1295.61 841.94 1294.67 835.73 1294.25 829.52 1293.83 823.39 1293.95 817.31 1294.35 795.66 1299.42 775.44 1315.54 758.98 1339.55 735.15 1346.65 713.8 1357.93 696.28 1372.32 694.47 1375.28 692.68 1378.23 691.02 1381.31 708.55 1364.83 730.87 1351.85 756.26 1343.74 746.34 1359.14 737.87 1377.34 731.48 1397.71 708.65 1403.19 689.34 1411.28 675 1421.3 674.57 1422.82 674.05 1424.29 673.66 1425.82 687.57 1415.32 707.13 1406.82 730.52 1401.09 725.74 1417.03 722.21 1434.16 720.17 1452.16 699.13 1453.6 681 1456.14 668.05 1459.82 667.96 1460.88 667.76 1461.97 667.69 1463.04 679.71 1459.48 697.39 1456.82 719.87 1455.25 719.49 1458.96 719.04 1462.63 718.79 1466.42 717.95 1478.79 717.87 1490.93 718.45 1502.7 696.71 1498.37 679.46 1493.51 667.72 1488.66 667.78 1489.76 667.85 1490.85 667.94 1491.95 680.62 1497.07 698.16 1501.78 718.69 1505.84 719.47 1518.55 721.07 1530.78 723.36 1542.45 703.34 1538.75 686.97 1534.59 674.44 1530.34 674.76 1531.53 675.01 1532.76 675.36 1533.95 688.59 1538.29 705.25 1542.27 724.03 1545.7 728.01 1564.72 733.85 1582.15 741.34 1597.14 727.18 1595 714.37 1592.63 702.96 1590.12 703.81 1591.36 704.66 1592.62 705.59 1593.82ZM721.88 1506.47C739.48 1509.84 758.99 1512.73 779.3 1515.01 779.17 1527.43 779.38 1539.3 779.88 1550.55 760.27 1548.46 742.49 1545.9 726.64 1543.06 724.31 1531.42 722.69 1519.2 721.88 1506.47ZM783.12 1550.88C782.59 1539.77 782.38 1527.92 782.49 1515.37 795.03 1516.73 807.78 1517.89 820.53 1518.74 833.27 1519.6 846.05 1520.17 858.67 1520.51 857.1 1532.96 855.28 1544.68 853.27 1555.62 842.05 1555.26 830.36 1554.69 818.16 1553.87 805.95 1553.06 794.29 1552.04 783.12 1550.88ZM817.94 1557.07C829.53 1557.86 841.18 1558.4 852.68 1558.75 849.21 1577.05 845.21 1593.05 840.91 1606.36 832.41 1606.01 823.73 1605.58 814.7 1604.97 805.66 1604.37 797 1603.62 788.53 1602.83 786.06 1589.07 784.25 1572.67 783.27 1554.06 794.72 1555.27 806.34 1556.29 817.94 1557.07ZM782.51 1512.24C782.69 1499.1 783.22 1485.33 784.19 1470.85 784.58 1465.15 785.04 1459.6 785.52 1454.1 797.99 1454.43 811.06 1455.02 824.77 1455.94 838.46 1456.86 851.5 1458.04 863.9 1459.39 863.64 1464.9 863.35 1470.46 862.97 1476.16 862 1490.63 860.66 1504.36 859.07 1517.4 846.89 1517.05 834.11 1516.45 820.74 1515.55 807.38 1514.65 794.63 1513.53 782.51 1512.24ZM864.11 1397.73C864.89 1415.49 864.96 1435.05 864.06 1456.27 851.18 1454.84 838.07 1453.63 824.98 1452.75 811.88 1451.87 798.73 1451.3 785.78 1450.99 787.73 1429.83 790.43 1410.46 793.59 1392.98 805.05 1392.65 816.89 1392.86 828.97 1393.67 841.05 1394.49 852.8 1395.87 864.11 1397.73ZM829.18 1390.48C817.24 1389.67 805.53 1389.46 794.18 1389.77 798.27 1367.92 803.11 1349.26 808.29 1334.5 816.4 1334.12 824.59 1334.02 832.94 1334.59 841.3 1335.16 849.41 1336.34 857.38 1337.81 860.54 1353.14 862.83 1372.27 863.94 1394.48 852.75 1392.64 841.12 1391.29 829.18 1390.48ZM723.04 1455.02C740.31 1453.92 760.27 1453.55 782.31 1454.04 781.83 1459.51 781.38 1465.01 780.99 1470.63 780.04 1484.86 779.51 1498.62 779.32 1511.87 757.84 1509.5 738.42 1506.6 721.64 1503.37 721.02 1491.46 721.07 1479.18 721.92 1466.64 722.18 1462.71 722.64 1458.88 723.04 1455.02ZM733.96 1400.3C751.05 1396.38 770.06 1393.91 790.29 1393.14 787.13 1410.88 784.48 1430.26 782.58 1450.92 761.67 1450.49 741.51 1450.84 723.33 1451.97 725.43 1433.73 729.05 1416.37 733.96 1400.3ZM760.76 1342.33C774.69 1338.26 789.45 1335.68 804.77 1334.7 799.53 1349.88 794.81 1368.59 790.87 1389.93 770.85 1390.67 752.04 1393.11 734.98 1396.96 741.64 1376.17 750.43 1357.67 760.76 1342.33ZM826.48 1296.05C819.25 1301.63 812.21 1313.93 805.87 1331.44 791.35 1332.29 777.25 1334.41 763.91 1338 781.64 1313.48 803.41 1298.04 826.48 1296.05ZM835.58 1295.85C843.78 1296.41 851.33 1310.32 856.69 1334.43 849 1333.06 841.2 1331.94 833.18 1331.4 825.15 1330.86 817.27 1330.92 809.46 1331.24 818.02 1308.08 827.37 1295.3 835.58 1295.85ZM900.91 1347.25C888.18 1341.9 874.5 1337.9 860.21 1335.11 856.29 1316.91 850.97 1303.77 844.55 1297.27 867.15 1302.35 886.64 1320.57 900.91 1347.25ZM921.65 1409.56C905.26 1403.46 886.95 1398.51 867.22 1395.08 866.18 1373.41 864.02 1354.23 860.87 1338.48 875.92 1341.52 890.2 1346.06 903.45 1351.97 911.63 1368.55 917.85 1388.07 921.65 1409.56ZM925.8 1465.64C907.95 1462.08 888.01 1459.02 867.24 1456.63 868.13 1435.91 868.11 1416.35 867.35 1398.35 887.3 1401.83 905.8 1406.83 922.21 1413.01 924.92 1429.59 926.17 1447.28 925.8 1465.64ZM920.57 1516.8C903.5 1517.75 883.87 1518.01 862.27 1517.47 863.86 1504.32 865.19 1490.61 866.15 1476.39 866.53 1470.78 866.82 1465.25 867.08 1459.77 888.99 1462.25 908.7 1465.3 925.67 1468.71 925.56 1472.59 925.49 1476.44 925.23 1480.38 924.39 1492.91 922.79 1505.08 920.57 1516.8ZM910.28 1555.46C894.2 1556.15 876.24 1556.29 856.52 1555.73 858.53 1544.65 860.33 1532.92 861.87 1520.59 882.29 1521.06 902.02 1520.83 919.91 1519.85 917.4 1532.35 914.16 1544.24 910.28 1555.46ZM884.6 1607.15C872.07 1607.26 858.54 1607.04 844.32 1606.5 848.65 1592.88 852.59 1576.81 855.96 1558.83 874.49 1559.32 892.53 1559.25 909.2 1558.57 902.55 1577.02 894.22 1593.44 884.6 1607.15ZM820.68 1650.97C828.68 1644.79 836.42 1630.23 843.27 1609.64 856.58 1610.12 869.7 1610.32 882.37 1610.22 864.8 1634.04 843.37 1649.01 820.68 1650.97ZM789.16 1606.08C797.57 1606.88 806.03 1607.6 814.48 1608.17 822.94 1608.74 831.42 1609.16 839.86 1609.5 830.73 1636.58 820.48 1651.77 811.58 1651.17 802.67 1650.56 794.56 1634.13 789.16 1606.08ZM746.94 1601.08C759.47 1602.88 772.51 1604.45 785.76 1605.76 789.78 1627.08 795.49 1642.56 802.59 1649.76 780.38 1644.75 761.15 1627.04 746.94 1601.08ZM727.31 1546.29C743.72 1549.2 761.6 1551.7 780.02 1553.7 780.95 1571.97 782.69 1588.42 785.15 1602.5 770.97 1601.12 757.54 1599.53 745.15 1597.73 737.45 1582.85 731.41 1565.47 727.31 1546.29Z" opacity="0.39"/><path d="M827.4 1524.64C888.73 1527.93 948.45 1522.13 986.52 1508.54 993.29 1506.14 996.82 1498.69 994.4 1491.92 991.99 1485.16 984.57 1481.63 977.78 1484.04 906.55 1509.47 750.24 1504.5 669.36 1462.48 662.99 1459.15 655.12 1461.65 651.82 1468.03 648.51 1474.4 650.99 1482.26 657.37 1485.56 701.96 1508.74 765.51 1521.32 827.4 1524.64Z" fill="#594545"/></g><path d="M742.91 1729.09C778.59 1734.83 834.28 1789.82 882.36 1721.58 891.43 1708.71 920.19 1744.1 913.61 1769.22 908.37 1780.89 923.63 1781.66 915.62 1807.72 910.66 1823.86 901.7 1832.4 903.65 1839.62 911.78 1869.79 884.92 1871.54 887.03 1884.78 890.04 1903.75 874.74 1913.87 865.04 1918.59 837.73 1931.88 775.9 1919.33 705.72 1910.11 662.01 1904.37 642.18 1820.54 648.83 1807.18 676.23 1752.16 719.41 1725.31 742.91 1729.09Z" fill="#FFC19F"/><g><path d="M1810.41 1002.3C1895.83 984.37 1967.69 983.31 1986.06 1014.77 1941.38 1030.8 1745.35 1089.56 1625.1 1118 1610.48 1121.46 1586.29 1046.19 1603.26 1030.23 1618.94 981.47 1710.91 966.04 1790.18 885.19 1812.85 862.06 1817.37 888.44 1814.39 903.16 1809.05 929.49 1781.5 947.66 1756.56 988.91 1738.95 1018.02 1786.41 1007.33 1810.41 1002.3Z" fill="#E0956C"/><path d="M2000.14 1079.7C1948.3 1088.9 1870.94 1103 1724.05 1132.74 1680.58 1141.54 1669.13 1075.15 1686.1 1071.33 1773.98 1051.49 1974.54 1009.39 2000.14 1079.7Z" fill="#E0956C"/><path d="M1972.44 1093.62C1921.11 1105.32 1798.64 1128.25 1654.43 1154.67 1581.74 1167.99 1521.15 1046.22 1608.1 1003.92 1660.26 978.54 1750.48 1028.69 1786.67 1062.46 1872.81 1055.12 1957.31 1059.75 1972.44 1093.62Z" fill="#FFC19F"/></g><g><path d="M920.83 2827.31C921.8 2834.75 922.65 2841.25 923.16 2845.59L948.92 2844.87C948.71 2833.41 939.25 2824.08 927.78 2824.29 925.05 2824.33 923.2 2826.31 920.83 2827.31ZM1073.45 2842.5 1114.96 2841.71C1114.76 2830.25 1105.29 2821.08 1093.83 2821.29 1082.36 2821.5 1073.24 2831.03 1073.45 2842.5ZM1114.96 2841.72 1149.25 2841.07C1149.38 2838.57 1149.68 2833.08 1150.04 2826.34 1146.23 2822.69 1141.04 2820.46 1135.34 2820.56 1123.88 2820.75 1114.76 2830.25 1114.96 2841.72ZM1031.94 2843.29 1073.45 2842.5C1073.24 2831.03 1063.78 2821.83 1052.32 2822.04 1040.85 2822.25 1031.73 2831.82 1031.94 2843.29ZM990.43 2844.08 1031.94 2843.29C1031.73 2831.82 1022.27 2822.58 1010.8 2822.79 999.34 2822.99 990.22 2832.61 990.43 2844.08ZM948.92 2844.87 990.43 2844.08C990.22 2832.61 980.76 2823.33 969.3 2823.53 957.83 2823.74 948.71 2833.4 948.92 2844.87Z" fill="#F44D19"/><path d="M947.65 3063.13C948.51 3069.14 1143.69 3058.04 1144.42 3050.73 1150.48 2989.7 1148.74 2864.01 1149.25 2841.06L923.16 2845.58C930.77 2908.93 942.17 3024.64 947.65 3063.13Z" fill="#FFF8B3"/><path d="M1114.63 2938.24C1111.74 2923.79 976.77 2945.45 952.36 2940.67 951.07 2973.93 930.87 3027.21 930.94 3072.45 930.98 3103.95 956.73 3127.45 985.4 3133.21 1096.12 3155.47 1388.64 3221.72 1403.07 3140.39 1414.89 3073.64 1240.61 3019.45 1114.63 2938.24Z" fill="#FFF8B3"/><path d="M932.89 2992.9C934.94 2990.45 940.48 2990.33 944.52 2994.43 971.34 3010.73 1014.12 3027.76 1049.44 3039.43 1061.47 3043.4 1073.41 3046.49 1085.17 3048.82 1097.37 3014.11 1128.07 2972.89 1155.89 2956.29 1161.71 2952.79 1169.01 2955.02 1172.24 2961.14 1175.48 2967.27 1173.39 2975.08 1167.59 2978.53 1146.14 2991.32 1121.17 3024.27 1109.71 3052.19 1183.48 3062.78 1240.05 3063.03 1268.34 3016.12 1353.2 3067.89 1442.54 3086.58 1439.1 3143.89 1434.86 3214.27 928.29 3137.8 928.29 3137.8 930.08 3095.45 930.94 3030.99 932.89 2992.9Z" fill="#F44D19"/><path d="M927.95 3112.16C927.89 3121.57 927.75 3130.65 927.41 3138.71 927.41 3138.71 1365.12 3226.7 1434.54 3165.06 1437.02 3162.85 1440.02 3151.67 1438.86 3148.03 1315.44 3173.38 1038.92 3131.22 927.95 3112.16Z" fill="#B22909"/><path d="M1149.14 2874C1057.19 2879.87 1018.01 2879.57 926.92 2878.25 926.56 2875.01 926.19 2871.79 925.84 2868.67 1017.75 2870.01 1056.67 2870.35 1149.15 2864.45 1149.14 2867.64 1149.14 2870.36 1149.14 2874Z" fill="#F44D19"/></g><g><path d="M788.53 2824.28C777.06 2824.08 767.6 2833.4 767.39 2844.86L793.15 2845.58C793.66 2841.25 794.5 2834.74 795.48 2827.3 793.11 2826.31 791.26 2824.33 788.53 2824.28ZM622.48 2821.3C611.02 2821.09 601.55 2830.25 601.35 2841.72L642.86 2842.51C643.07 2831.03 633.94 2821.5 622.48 2821.3ZM580.96 2820.55C575.27 2820.45 570.08 2822.68 566.26 2826.33 566.62 2833.07 566.91 2838.56 567.05 2841.06L601.34 2841.71C601.55 2830.25 592.43 2820.75 580.96 2820.55ZM663.99 2822.04C652.53 2821.84 643.06 2831.03 642.86 2842.5L684.37 2843.29C684.58 2831.82 675.46 2822.25 663.99 2822.04ZM705.5 2822.79C694.04 2822.58 684.57 2831.82 684.37 2843.29L725.88 2844.08C726.09 2832.61 716.97 2822.99 705.5 2822.79ZM747.01 2823.53C735.55 2823.33 726.08 2832.6 725.88 2844.08L767.39 2844.87C767.6 2833.4 758.48 2823.74 747.01 2823.53Z" fill="#F44D19"/><path d="M768.65 3063.13C767.79 3069.14 572.61 3058.04 571.89 3050.73 565.82 2989.7 567.56 2864.01 567.06 2841.06L793.15 2845.58C785.54 2908.93 774.14 3024.64 768.65 3063.13Z" fill="#FFF8B3"/><path d="M601.68 2938.24C604.56 2923.79 739.54 2945.45 763.95 2940.67 765.24 2973.93 785.44 3027.21 785.37 3072.45 785.33 3103.95 759.59 3127.45 730.91 3133.21 620.2 3155.47 327.67 3221.72 313.25 3140.39 301.41 3073.64 475.7 3019.45 601.68 2938.24Z" fill="#FFF8B3"/><path d="M783.42 2992.9C781.37 2990.45 775.83 2990.33 771.79 2994.43 744.97 3010.73 702.19 3027.76 666.87 3039.43 654.84 3043.4 642.89 3046.49 631.14 3048.82 618.93 3014.11 588.24 2972.89 560.42 2956.29 554.6 2952.79 547.3 2955.02 544.06 2961.14 540.83 2967.27 542.91 2975.08 548.72 2978.53 570.17 2991.32 595.14 3024.27 606.6 3052.19 532.83 3062.78 476.25 3063.03 447.97 3016.12 363.11 3067.89 273.77 3086.58 277.22 3143.89 281.45 3214.27 788.03 3137.8 788.03 3137.8 786.22 3095.45 785.37 3030.99 783.42 2992.9Z" fill="#F44D19"/><path d="M788.37 3112.16C788.43 3121.57 788.56 3130.65 788.9 3138.71 788.9 3138.71 351.2 3226.7 281.77 3165.06 279.29 3162.85 276.29 3151.67 277.45 3148.03 400.87 3173.38 677.39 3131.22 788.37 3112.16Z" fill="#B22909"/><path d="M567.17 2874C659.12 2879.87 698.3 2879.57 789.39 2878.25 789.75 2875.01 790.11 2871.79 790.47 2868.67 698.55 2870.01 659.63 2870.35 567.16 2864.45 567.17 2867.64 567.17 2870.36 567.17 2874Z" fill="#F44D19"/></g></g></svg>