<svg width="1028.71" height="302.87" viewBox="0 0 1028.71 302.87" xmlns="http://www.w3.org/2000/svg" xmlns:xlink="http://www.w3.org/1999/xlink" xml:space="preserve" overflow="visible"><defs></defs><g><g><path d="M29.38 302.87 31.71 302.87C37.14 294.62 60.95 288.4 89.51 288.4 118.07 288.4 141.88 294.61 147.31 302.87L149.64 302.87C155.07 294.62 178.88 288.4 207.44 288.4 236 288.4 259.81 294.61 265.24 302.87L267.57 302.87C273 294.62 296.81 288.4 325.37 288.4 353.93 288.4 377.74 294.61 383.17 302.87L385.5 302.87C390.93 294.62 414.74 288.4 443.3 288.4 471.86 288.4 495.67 294.61 501.1 302.87L503.43 302.87C508.86 294.62 532.67 288.4 561.23 288.4 589.79 288.4 613.6 294.61 619.03 302.87L621.36 302.87C626.79 294.62 650.6 288.4 679.16 288.4 707.72 288.4 731.53 294.61 736.96 302.87L739.29 302.87C744.72 294.62 768.53 288.4 797.09 288.4 825.65 288.4 849.46 294.61 854.89 302.87L857.22 302.87C862.65 294.62 886.46 288.4 915.02 288.4 943.58 288.4 967.39 294.61 972.82 302.87L975.15 302.87C980.3 295.04 1002.02 289.05 1028.63 288.46L1028.63 78.75 0 78.75 0 290.64C14.93 293.15 25.91 297.59 29.38 302.87Z" opacity="0.4"/><path d="M29.38 300.02 31.71 300.02C37.14 291.77 60.95 285.55 89.51 285.55 118.07 285.55 141.88 291.76 147.31 300.02L149.64 300.02C155.07 291.77 178.88 285.55 207.44 285.55 236 285.55 259.81 291.76 265.24 300.02L267.57 300.02C273 291.77 296.81 285.55 325.37 285.55 353.93 285.55 377.74 291.76 383.17 300.02L385.5 300.02C390.93 291.77 414.74 285.55 443.3 285.55 471.86 285.55 495.67 291.76 501.1 300.02L503.43 300.02C508.86 291.77 532.67 285.55 561.23 285.55 589.79 285.55 613.6 291.76 619.03 300.02L621.36 300.02C626.79 291.77 650.6 285.55 679.16 285.55 707.72 285.55 731.53 291.76 736.96 300.02L739.29 300.02C744.72 291.77 768.53 285.55 797.09 285.55 825.65 285.55 849.46 291.76 854.89 300.02L857.22 300.02C862.65 291.77 886.46 285.55 915.02 285.55 943.58 285.55 967.39 291.76 972.82 300.02L975.15 300.02C980.3 292.19 1002.02 286.2 1028.63 285.61L1028.63 75.9 0 75.9 0 287.79C14.93 290.3 25.91 294.74 29.38 300.02Z" fill="#289256"/></g><g><path d="M29.38 284.82 31.71 284.82C37.14 276.57 60.95 270.35 89.51 270.35 118.07 270.35 141.88 276.56 147.31 284.82L149.64 284.82C155.07 276.57 178.88 270.35 207.44 270.35 236 270.35 259.81 276.56 265.24 284.82L267.57 284.82C273 276.57 296.81 270.35 325.37 270.35 353.93 270.35 377.74 276.56 383.17 284.82L385.5 284.82C390.93 276.57 414.74 270.35 443.3 270.35 471.86 270.35 495.67 276.56 501.1 284.82L503.43 284.82C508.86 276.57 532.67 270.35 561.23 270.35 589.79 270.35 613.6 276.56 619.03 284.82L621.36 284.82C626.79 276.57 650.6 270.35 679.16 270.35 707.72 270.35 731.53 276.56 736.96 284.82L739.29 284.82C744.72 276.57 768.53 270.35 797.09 270.35 825.65 270.35 849.46 276.56 854.89 284.82L857.22 284.82C862.65 276.57 886.46 270.35 915.02 270.35 943.58 270.35 967.39 276.56 972.82 284.82L975.15 284.82C980.3 276.99 1002.02 271 1028.63 270.41L1028.63 60.7 0 60.7 0 272.59C14.93 275.1 25.91 279.54 29.38 284.82Z" opacity="0.4"/><path d="M29.38 281.97 31.71 281.97C37.14 273.72 60.95 267.5 89.51 267.5 118.07 267.5 141.88 273.71 147.31 281.97L149.64 281.97C155.07 273.72 178.88 267.5 207.44 267.5 236 267.5 259.81 273.71 265.24 281.97L267.57 281.97C273 273.72 296.81 267.5 325.37 267.5 353.93 267.5 377.74 273.71 383.17 281.97L385.5 281.97C390.93 273.72 414.74 267.5 443.3 267.5 471.86 267.5 495.67 273.71 501.1 281.97L503.43 281.97C508.86 273.72 532.67 267.5 561.23 267.5 589.79 267.5 613.6 273.71 619.03 281.97L621.36 281.97C626.79 273.72 650.6 267.5 679.16 267.5 707.72 267.5 731.53 273.71 736.96 281.97L739.29 281.97C744.72 273.72 768.53 267.5 797.09 267.5 825.65 267.5 849.46 273.71 854.89 281.97L857.22 281.97C862.65 273.72 886.46 267.5 915.02 267.5 943.58 267.5 967.39 273.71 972.82 281.97L975.15 281.97C980.3 274.14 1002.02 268.15 1028.63 267.56L1028.63 57.85 0 57.85 0 269.74C14.93 272.25 25.91 276.69 29.38 281.97Z" fill="#67C265"/></g><g><path d="M29.38 263.7 31.71 263.7C37.14 255.45 60.95 249.23 89.51 249.23 118.07 249.23 141.88 255.44 147.31 263.7L149.64 263.7C155.07 255.45 178.88 249.23 207.44 249.23 236 249.23 259.81 255.44 265.24 263.7L267.57 263.7C273 255.45 296.81 249.23 325.37 249.23 353.93 249.23 377.74 255.44 383.17 263.7L385.5 263.7C390.93 255.45 414.74 249.23 443.3 249.23 471.86 249.23 495.67 255.44 501.1 263.7L503.43 263.7C508.86 255.45 532.67 249.23 561.23 249.23 589.79 249.23 613.6 255.44 619.03 263.7L621.36 263.7C626.79 255.45 650.6 249.23 679.16 249.23 707.72 249.23 731.53 255.44 736.96 263.7L739.29 263.7C744.72 255.45 768.53 249.23 797.09 249.23 825.65 249.23 849.46 255.44 854.89 263.7L857.22 263.7C862.65 255.45 886.46 249.23 915.02 249.23 943.58 249.23 967.39 255.44 972.82 263.7L975.15 263.7C980.3 255.87 1002.02 249.88 1028.63 249.29L1028.63 39.58 0 39.58 0 251.47C14.93 253.99 25.91 258.43 29.38 263.7Z" opacity="0.4"/><path d="M29.38 260.85 31.71 260.85C37.14 252.6 60.95 246.38 89.51 246.38 118.07 246.38 141.88 252.59 147.31 260.85L149.64 260.85C155.07 252.6 178.88 246.38 207.44 246.38 236 246.38 259.81 252.59 265.24 260.85L267.57 260.85C273 252.6 296.81 246.38 325.37 246.38 353.93 246.38 377.74 252.59 383.17 260.85L385.5 260.85C390.93 252.6 414.74 246.38 443.3 246.38 471.86 246.38 495.67 252.59 501.1 260.85L503.43 260.85C508.86 252.6 532.67 246.38 561.23 246.38 589.79 246.38 613.6 252.59 619.03 260.85L621.36 260.85C626.79 252.6 650.6 246.38 679.16 246.38 707.72 246.38 731.53 252.59 736.96 260.85L739.29 260.85C744.72 252.6 768.53 246.38 797.09 246.38 825.65 246.38 849.46 252.59 854.89 260.85L857.22 260.85C862.65 252.6 886.46 246.38 915.02 246.38 943.58 246.38 967.39 252.59 972.82 260.85L975.15 260.85C980.3 253.02 1002.02 247.03 1028.63 246.44L1028.63 36.73 0 36.73 0 248.62C14.93 251.14 25.91 255.58 29.38 260.85Z" fill="#B1F164"/></g><g><path d="M29.38 241.85 31.71 241.85C37.14 233.6 60.95 227.38 89.51 227.38 118.07 227.38 141.88 233.59 147.31 241.85L149.64 241.85C155.07 233.6 178.88 227.38 207.44 227.38 236 227.38 259.81 233.59 265.24 241.85L267.57 241.85C273 233.6 296.81 227.38 325.37 227.38 353.93 227.38 377.74 233.59 383.17 241.85L385.5 241.85C390.93 233.6 414.74 227.38 443.3 227.38 471.86 227.38 495.67 233.59 501.1 241.85L503.43 241.85C508.86 233.6 532.67 227.38 561.23 227.38 589.79 227.38 613.6 233.59 619.03 241.85L621.36 241.85C626.79 233.6 650.6 227.38 679.16 227.38 707.72 227.38 731.53 233.59 736.96 241.85L739.29 241.85C744.72 233.6 768.53 227.38 797.09 227.38 825.65 227.38 849.46 233.59 854.89 241.85L857.22 241.85C862.65 233.6 886.46 227.38 915.02 227.38 943.58 227.38 967.39 233.59 972.82 241.85L975.15 241.85C980.3 234.02 1002.02 228.03 1028.63 227.44L1028.63 17.73 0 17.73 0 229.62C14.93 232.14 25.91 236.58 29.38 241.85Z" opacity="0.4"/><path d="M29.38 239 31.71 239C37.14 230.75 60.95 224.53 89.51 224.53 118.07 224.53 141.88 230.74 147.31 239L149.64 239C155.07 230.75 178.88 224.53 207.44 224.53 236 224.53 259.81 230.74 265.24 239L267.57 239C273 230.75 296.81 224.53 325.37 224.53 353.93 224.53 377.74 230.74 383.17 239L385.5 239C390.93 230.75 414.74 224.53 443.3 224.53 471.86 224.53 495.67 230.74 501.1 239L503.43 239C508.86 230.75 532.67 224.53 561.23 224.53 589.79 224.53 613.6 230.74 619.03 239L621.36 239C626.79 230.75 650.6 224.53 679.16 224.53 707.72 224.53 731.53 230.74 736.96 239L739.29 239C744.72 230.75 768.53 224.53 797.09 224.53 825.65 224.53 849.46 230.74 854.89 239L857.22 239C862.65 230.75 886.46 224.53 915.02 224.53 943.58 224.53 967.39 230.74 972.82 239L975.15 239C980.3 231.17 1002.02 225.18 1028.63 224.59L1028.63 14.88 0 14.88 0 226.77C14.93 229.29 25.91 233.73 29.38 239Z" fill="#FFDE59"/></g><g><path d="M29.38 224.12 31.71 224.12C37.14 215.87 60.95 209.65 89.51 209.65 118.07 209.65 141.88 215.86 147.31 224.12L149.64 224.12C155.07 215.87 178.88 209.65 207.44 209.65 236 209.65 259.81 215.86 265.24 224.12L267.57 224.12C273 215.87 296.81 209.65 325.37 209.65 353.93 209.65 377.74 215.86 383.17 224.12L385.5 224.12C390.93 215.87 414.74 209.65 443.3 209.65 471.86 209.65 495.67 215.86 501.1 224.12L503.43 224.12C508.86 215.87 532.67 209.65 561.23 209.65 589.79 209.65 613.6 215.86 619.03 224.12L621.36 224.12C626.79 215.87 650.6 209.65 679.16 209.65 707.72 209.65 731.53 215.86 736.96 224.12L739.29 224.12C744.72 215.87 768.53 209.65 797.09 209.65 825.65 209.65 849.46 215.86 854.89 224.12L857.22 224.12C862.65 215.87 886.46 209.65 915.02 209.65 943.58 209.65 967.39 215.86 972.82 224.12L975.15 224.12C980.3 216.29 1002.02 210.3 1028.63 209.71L1028.63 0 0 0 0 211.89C14.93 214.4 25.91 218.84 29.38 224.12Z" opacity="0.4"/></g></g></svg>