<svg width="1413.4" height="1413.34" viewBox="0 0 1413.4 1413.34" xmlns="http://www.w3.org/2000/svg" xmlns:xlink="http://www.w3.org/1999/xlink" xml:space="preserve" overflow="visible"><defs></defs><g><defs><rect x="206.7" y="206.67" width="1000" height="1000" id="SVGID_1_"/></defs><clipPath id="SVGID_2_"><use width="100%" height="100%" xlink:href="#SVGID_1_" overflow="visible"></use></clipPath><radialGradient cx="706.783" cy="706.67" r="457.635" gradientUnits="userSpaceOnUse" id="SVGID_3_" gradientTransform="matrix(1.4331 0 0 1.362 -306.191 -255.779)"><stop offset="0" stop-color="#FFEA98"/><stop offset="0.1588" stop-color="#FFE788"/><stop offset="0.4992" stop-color="#FFE06A"/><stop offset="0.7916" stop-color="#FFDC58"/><stop offset="1" stop-color="#FFDB51"/></radialGradient><rect x="172.48" y="183.56" width="1068.43" height="1046.22" fill="url(#SVGID_3_)" fill-rule="evenodd" clip-rule="evenodd" clip-path="url(#SVGID_2_)"/><g clip-path="url(#SVGID_2_)"><g><path d="M700.97 721.22 1082.15 106.47 1168.42 169.22Z" fill="#FFC330"/></g><g><path d="M704.35 722.16 947.18 40.8 1044.76 83.93Z" fill="#FFC330"/></g><g><path d="M707.85 722.37 801.39 5.1 905.87 26.66Z" fill="#FFC330"/></g><g><path d="M711.32 721.83 651.36 0.98 758.03 0Z" fill="#FFC330"/></g><g><path d="M714.6 720.57 503.83 28.62 607.9 5.14Z" fill="#FFC330"/></g><g><path d="M717.54 718.65 365.46 86.78 462.23 41.86Z" fill="#FFC330"/></g><g><path d="M720 716.15 242.48 172.83 327.59 108.5Z" fill="#FFC330"/></g><g><path d="M721.89 713.18 140.44 282.9 210.05 202.06Z" fill="#FFC330"/></g><g><path d="M723.1 709.89 63.93 412.03 114.91 318.32Z" fill="#FFC330"/></g><g><path d="M723.59 706.41 16.41 554.4 46.45 452.04Z" fill="#FFC330"/></g><g><path d="M723.34 702.91 0 703.6 7.77 597.2Z" fill="#FFC330"/></g><g><path d="M722.35 699.54 15.46 852.89 0.59 747.25Z" fill="#FFC330"/></g><g><path d="M720.68 696.46 62.08 995.57 25.25 895.44Z" fill="#FFC330"/></g><g><path d="M718.39 693.8 137.76 1125.18 80.63 1035.09Z" fill="#FFC330"/></g><g><path d="M715.59 691.68 239.1 1235.9 164.24 1159.9Z" fill="#FFC330"/></g><g><path d="M712.41 690.2 361.53 1322.73 272.31 1264.25Z" fill="#FFC330"/></g><g><path d="M708.98 689.42 499.53 1381.77 399.97 1343.43Z" fill="#FFC330"/></g><g><path d="M705.47 689.39 646.87 1410.35 541.47 1393.89Z" fill="#FFC330"/></g><g><path d="M702.03 690.09 796.93 1407.18 690.43 1413.34Z" fill="#FFC330"/></g><g><path d="M698.82 691.51 942.95 1372.41 840.14 1400.91Z" fill="#FFC330"/></g><g><path d="M695.98 693.57 1078.33 1307.6 983.86 1357.16Z" fill="#FFC330"/></g><g><path d="M693.64 696.19 1196.98 1215.68 1115.1 1284.06Z" fill="#FFC330"/></g><g><path d="M691.9 699.24 1293.56 1100.78 1227.95 1184.9Z" fill="#FFC330"/></g><g><path d="M690.85 702.59 1363.7 968.08 1317.33 1064.16Z" fill="#FFC330"/></g><g><path d="M690.52 706.09 1404.26 823.57 1379.22 927.27Z" fill="#FFC330"/></g><g><path d="M690.95 709.57 1413.4 673.76 1410.81 780.41Z" fill="#FFC330"/></g><g><path d="M692.23 712.86 1383.8 500.85 1407.47 604.87Z" fill="#FFC330"/></g><g><path d="M694.1 715.8 1319.51 352.36 1366.16 448.3Z" fill="#FFC330"/></g><g><path d="M697.68 718.46 1214.05 211.92 1282.93 293.37Z" fill="#FFC330"/></g></g></g></svg>